<svg width="50" height="50" viewBox="0 0 50 50" fill="none" xmlns="http://www.w3.org/2000/svg">
<g clip-path="url(#clip0_4879_102)">
<path fill-rule="evenodd" clip-rule="evenodd" d="M25 50C38.8072 50 50.0001 38.8071 50.0001 25C50.0001 11.1929 38.8072 0 25 0C11.1928 0 0 11.1929 0 25C0 38.8071 11.1928 50 25 50ZM32.7992 11.6461C33.1788 10.2976 31.8702 9.50017 30.6751 10.3517L13.9914 22.237C12.6953 23.1603 12.8992 25 14.2977 25H18.6909V24.966H27.2532L20.2765 27.4276L17.2009 38.354C16.8213 39.7025 18.1298 40.4998 19.325 39.6483L36.0087 27.7631C37.3048 26.8397 37.1008 25 35.7024 25H29.0402L32.7992 11.6461Z" fill="#F15757"/>
</g>
<defs>
<clipPath id="clip0_4879_102">
<rect width="50" height="50" fill="white"/>
</clipPath>
</defs>
</svg>
