<svg width="50" height="50" viewBox="0 0 50 50" fill="none" xmlns="http://www.w3.org/2000/svg">
<path d="M32.1012 24.6577C32.1012 33.169 25.2014 40.0687 16.6902 40.0687C8.17905 40.0687 1.2793 33.169 1.2793 24.6577C1.2793 16.1466 8.17905 9.24683 16.6902 9.24683C25.2014 9.24683 32.1012 16.1466 32.1012 24.6577Z" fill="#68DBFF"/>
<path d="M48.7197 24.6577C48.7197 33.169 41.8875 40.0687 33.4597 40.0687C25.032 40.0687 18.1998 33.169 18.1998 24.6577C18.1998 16.1466 25.032 9.24683 33.4597 9.24683C41.8875 9.24683 48.7197 16.1466 48.7197 24.6577Z" fill="#FF7917"/>
<path d="M25.1156 37.5624C29.3214 34.8106 32.0999 30.0585 32.0999 24.6572C32.0999 19.2562 29.3214 14.5039 25.1156 11.7521C20.9512 14.5039 18.1998 19.2562 18.1998 24.6572C18.1998 30.0585 20.9512 34.8106 25.1156 37.5624Z" fill="#5D2C02"/>
</svg>
