<svg width="50" height="50" viewBox="0 0 50 50" fill="none" xmlns="http://www.w3.org/2000/svg">
<path d="M25 13.2812C25 19.7533 19.7533 25 13.2812 25H1.5625V13.2812C1.5625 6.80916 6.80916 1.5625 13.2812 1.5625C19.7533 1.5625 25 6.80916 25 13.2812Z" fill="#17CF97"/>
<path d="M25 36.7187C25 30.2467 30.2467 25 36.7187 25H48.4375V36.7187C48.4375 43.1908 43.1908 48.4375 36.7187 48.4375C30.2467 48.4375 25 43.1908 25 36.7187Z" fill="#17CF97"/>
<path d="M1.5625 36.7187C1.5625 43.1908 6.80916 48.4375 13.2812 48.4375H25V36.7187C25 30.2467 19.7533 25 13.2812 25C6.80916 25 1.5625 30.2467 1.5625 36.7187Z" fill="#17CF97"/>
<path d="M48.4375 13.2812C48.4375 6.80916 43.1908 1.5625 36.7187 1.5625H25V13.2812C25 19.7533 30.2467 25 36.7187 25C43.1908 25 48.4375 19.7533 48.4375 13.2812Z" fill="#17CF97"/>
</svg>
