<svg width="50" height="50" viewBox="0 0 50 50" fill="none" xmlns="http://www.w3.org/2000/svg">
<g clip-path="url(#clip0_4879_115)">
<mask id="mask0_4879_115" style="mask-type:luminance" maskUnits="userSpaceOnUse" x="0" y="0" width="50" height="50">
<path d="M50 0H0V50H50V0Z" fill="white"/>
</mask>
<g mask="url(#mask0_4879_115)">
<path fill-rule="evenodd" clip-rule="evenodd" d="M25 50C38.8072 50 50 38.8071 50 25C50 11.1929 38.8072 0 25 0C11.1929 0 0 11.1929 0 25C0 38.8071 11.1929 50 25 50ZM28.8587 19.3157C30.9897 17.1846 30.9897 13.7295 28.8587 11.5983C26.7276 9.46725 23.2725 9.46725 21.1413 11.5983C19.0103 13.7295 19.0103 17.1846 21.1413 19.3157L25 23.1743L28.8587 19.3157ZM30.6843 28.8587C32.8155 30.9898 36.2706 30.9898 38.4017 28.8587C40.5327 26.7276 40.5327 23.2725 38.4017 21.1413C36.2706 19.0103 32.8155 19.0103 30.6843 21.1413L26.8257 25.0001L30.6843 28.8587ZM28.8587 38.4017C30.9897 36.2706 30.9897 32.8155 28.8587 30.6843L25 26.8257L21.1413 30.6843C19.0103 32.8155 19.0103 36.2706 21.1413 38.4017C23.2725 40.5328 26.7276 40.5328 28.8587 38.4017ZM11.5983 28.8587C9.46725 26.7276 9.46725 23.2725 11.5983 21.1413C13.7295 19.0103 17.1846 19.0103 19.3157 21.1413L23.1743 25.0001L19.3157 28.8587C17.1846 30.9898 13.7295 30.9898 11.5983 28.8587Z" fill="#7F57F1"/>
</g>
</g>
<defs>
<clipPath id="clip0_4879_115">
<rect width="50" height="50" fill="white"/>
</clipPath>
</defs>
</svg>
