<svg width="50" height="50" viewBox="0 0 50 50" fill="none" xmlns="http://www.w3.org/2000/svg">
<g clip-path="url(#clip0_4879_132)">
<mask id="mask0_4879_132" style="mask-type:luminance" maskUnits="userSpaceOnUse" x="0" y="0" width="50" height="50">
<path d="M50 0H0V50H50V0Z" fill="white"/>
</mask>
<g mask="url(#mask0_4879_132)">
<path d="M24.9997 34.6775C19.655 34.6775 15.3223 30.3448 15.3223 25.0001C15.3223 19.6554 19.655 15.3227 24.9997 15.3227C30.3443 15.3227 34.6771 19.6554 34.6771 25.0001C34.6771 30.3448 30.3443 34.6775 24.9997 34.6775Z" fill="#51A3EE"/>
<path d="M6.25171 28.3064C3.44728 28.8009 1.52498 31.51 2.60152 34.1464C4.10448 37.8271 6.50228 41.1064 9.61083 43.669C14.0558 47.333 19.6623 49.2909 25.422 49.1904C31.1817 49.09 36.7165 46.9376 41.031 43.1204C44.0481 40.4511 46.3301 37.09 47.7037 33.3592C48.6877 30.6867 46.6718 28.0464 43.8518 27.6502C41.032 27.2538 38.5001 29.3064 37.1072 31.7903C36.3522 33.1366 35.372 34.358 34.1977 35.3969C31.7223 37.5871 28.5467 38.8219 25.2422 38.8797C21.9375 38.9373 18.7207 37.814 16.1703 35.7116C14.9605 34.7143 13.9384 33.5279 13.1368 32.2087C11.6582 29.775 9.05617 27.8119 6.25171 28.3064Z" fill="#51A3EE"/>
<path d="M49.0073 28.0234C49.1308 27.0329 49.1944 26.0239 49.1944 25C49.1944 11.6383 38.3625 0.806478 25.0008 0.806478C11.639 0.806478 0.807251 11.6383 0.807251 25C0.807251 26.3141 0.912009 27.6036 1.11363 28.8608C2.22489 27.3396 3.95928 26.2536 5.83267 25.9233C7.85959 25.5658 9.70171 26.0574 11.2593 26.9763C11.1673 26.3308 11.1197 25.671 11.1197 25C11.1197 17.3338 17.3345 11.1189 25.0008 11.1189C32.6671 11.1189 38.882 17.3338 38.882 25C38.882 25.5055 38.8548 26.0047 38.8023 26.4962C40.327 25.5231 42.1511 24.9672 44.1897 25.2538C46.0729 25.5184 47.8435 26.5426 49.0073 28.0234Z" fill="#0E4F8B"/>
</g>
</g>
<defs>
<clipPath id="clip0_4879_132">
<rect width="50" height="50" fill="white"/>
</clipPath>
</defs>
</svg>
