<svg width="50" height="50" viewBox="0 0 50 50" fill="none" xmlns="http://www.w3.org/2000/svg">
<path fill-rule="evenodd" clip-rule="evenodd" d="M12.1218 6.5476C10.5123 7.67301 9.05692 9.00358 7.79349 10.5014C12.9564 10.0221 19.5158 10.8048 27.1312 14.6125C35.2633 18.6785 41.8118 18.816 46.3692 17.9369C45.9556 16.6849 45.4349 15.4816 44.8183 14.3377C39.6013 14.8879 32.9132 14.1596 25.1187 10.2625C20.1692 7.7877 15.8062 6.76826 12.1218 6.5476ZM41.7708 10C37.6509 5.39688 31.6638 2.5 25 2.5C23.043 2.5 21.1442 2.74987 19.3342 3.21942C21.7857 3.88835 24.3901 4.86698 27.1312 6.23755C32.8378 9.09083 37.7647 10.0096 41.7708 10ZM47.3435 22.3316C41.8377 23.4188 34.2349 23.1955 25.1187 18.6374C16.5962 14.3762 9.813 14.4298 5.23814 15.4465C5.002 15.4989 4.77142 15.554 4.54641 15.6114C3.94745 16.9141 3.46934 18.2838 3.12629 19.7063C3.49268 19.6084 3.8713 19.5154 4.26193 19.4285C9.812 18.1952 17.6538 18.2487 27.1312 22.9875C35.6538 27.2487 42.4371 27.1951 47.012 26.1784C47.1687 26.1437 47.3232 26.1077 47.475 26.0706C47.4917 25.7158 47.5 25.3588 47.5 25C47.5 24.0972 47.4469 23.2067 47.3435 22.3316ZM46.7404 30.8188C41.2881 31.7721 33.9066 31.4062 25.1187 27.0124C16.5962 22.7511 9.813 22.8047 5.23814 23.8214C4.22266 24.047 3.30914 24.3218 2.5033 24.612C2.5011 24.741 2.5 24.8704 2.5 25C2.5 37.4264 12.5736 47.5 25 47.5C35.4142 47.5 44.176 40.4247 46.7404 30.8188Z" fill="#7F57F1"/>
</svg>
