<svg width="40" height="40" viewBox="0 0 40 40" fill="none" xmlns="http://www.w3.org/2000/svg">
<path d="M20.9692 15.6077C19.1461 15.8654 17.5538 17.5769 17.5385 17.5923C17.5156 17.616 17.4897 17.6367 17.4615 17.6539C14.9846 19.2615 13.5885 18.0385 13.5308 17.9654C11.9461 16.5385 13.4 14.1462 13.4615 14.0462C14.1106 12.9673 14.8966 11.977 15.8 11.1H9.07307L6.15384 20.7308C6.18519 20.7482 6.21372 20.7702 6.23845 20.7962C10.7692 25.9192 16.7846 30.4654 19.1577 32.1808C19.4047 32.3634 19.7118 32.4454 20.0169 32.4102C20.322 32.375 20.6024 32.2252 20.8013 31.9911C21.0002 31.7571 21.1027 31.4562 21.0882 31.1494C21.0737 30.8426 20.9432 30.5527 20.7231 30.3385L17.4577 27.0731C17.386 27.001 17.3458 26.9035 17.3458 26.8019C17.3458 26.7003 17.386 26.6028 17.4577 26.5308C17.4934 26.4947 17.536 26.4661 17.5828 26.4466C17.6297 26.4271 17.68 26.417 17.7308 26.417C17.7815 26.417 17.8318 26.4271 17.8787 26.4466C17.9255 26.4661 17.9681 26.4947 18.0038 26.5308L19.7423 28.2692L21.2808 29.8077L22.05 30.5962C22.3259 30.8649 22.6962 31.0149 23.0814 31.014C23.4666 31.013 23.8361 30.8613 24.1107 30.5911C24.3854 30.321 24.5433 29.9541 24.5506 29.569C24.5579 29.1838 24.4141 28.8112 24.15 28.5308L21.1538 25.4039L20.5846 24.8154C20.5486 24.7796 20.5199 24.7371 20.5004 24.6902C20.4809 24.6434 20.4708 24.5931 20.4708 24.5423C20.4708 24.4915 20.4809 24.4413 20.5004 24.3944C20.5199 24.3475 20.5486 24.305 20.5846 24.2692C20.6204 24.2332 20.6629 24.2046 20.7098 24.1851C20.7566 24.1655 20.8069 24.1555 20.8577 24.1555C20.9085 24.1555 20.9587 24.1655 21.0056 24.1851C21.0525 24.2046 21.095 24.2332 21.1308 24.2692L25.5038 28.8077C25.7156 29.0173 25.9836 29.1609 26.2754 29.221C26.5672 29.2812 26.8702 29.2553 27.1476 29.1465C27.425 29.0378 27.6648 28.8508 27.838 28.6084C28.0111 28.3659 28.1102 28.0784 28.1231 27.7808C28.1294 27.5711 28.0917 27.3624 28.0121 27.1682C27.9326 26.9741 27.8132 26.7988 27.6615 26.6539L25.0385 24.1154L23.2115 22.3423C23.1709 22.3084 23.1376 22.2664 23.1139 22.219C23.0902 22.1717 23.0766 22.1199 23.0738 22.067C23.0711 22.0141 23.0793 21.9612 23.0979 21.9117C23.1165 21.8621 23.1452 21.8169 23.1821 21.7789C23.219 21.7409 23.2634 21.711 23.3124 21.6909C23.3615 21.6709 23.4141 21.6612 23.4671 21.6625C23.52 21.6637 23.5721 21.6759 23.6202 21.6983C23.6682 21.7206 23.7111 21.7526 23.7461 21.7923L28.9385 26.8192C29.0746 26.9591 29.2377 27.07 29.4179 27.1451C29.598 27.2203 29.7915 27.2582 29.9867 27.2565C30.1819 27.2549 30.3748 27.2138 30.5537 27.1356C30.7325 27.0575 30.8937 26.9439 31.0276 26.8018C31.1614 26.6596 31.265 26.4919 31.3323 26.3086C31.3995 26.1254 31.429 25.9304 31.4188 25.7354C31.4087 25.5405 31.3592 25.3496 31.2734 25.1743C31.1875 24.999 31.067 24.8429 30.9192 24.7154L20.9692 15.6077ZM7.89999 8.84616C5.90329 7.94849 3.72608 7.52463 1.53845 7.6077V22.6923H3.88845C4.13926 22.6929 4.38344 22.6118 4.584 22.4612C4.78457 22.3106 4.9306 22.0987 4.99999 21.8577L8.53076 10.2308C8.61146 9.96274 8.59198 9.67451 8.47593 9.41977C8.35988 9.16504 8.15519 8.96118 7.89999 8.84616Z" fill="#0066FF"/>
<path d="M22.2153 9.59232C21.3859 9.25089 20.4591 9.23032 19.6153 9.53463C18.1422 10.0731 15.9922 11.3654 14.1038 14.45C14.1038 14.4731 12.923 16.3731 14.0345 17.3962C14.073 17.4308 15.0653 18.2616 16.9884 17.0346C17.2653 16.7462 18.9999 15.0077 21.0499 14.8192C21.1029 14.8148 21.1563 14.8214 21.2066 14.8386C21.2569 14.8558 21.3031 14.8833 21.3422 14.9192L31.423 24.15C31.4692 24.1923 31.5115 24.2385 31.5538 24.2846C32.7076 24.1077 33.4769 23.0539 33.6999 22.6692L30.0461 12.7116L22.2153 9.59232ZM37.6922 9.44232C35.4984 9.42775 33.3225 9.83785 31.2845 10.65C31.0105 10.7675 30.7925 10.9865 30.6764 11.2611C30.5602 11.5357 30.5549 11.8446 30.6615 12.1231L34.9422 23.7731C35.0258 23.9978 35.1758 24.1918 35.3723 24.3292C35.5688 24.4666 35.8025 24.541 36.0422 24.5423H38.4615V9.46155C38.2692 9.45001 38.0038 9.44232 37.6922 9.44232Z" fill="#0066FF" fill-opacity="0.3"/>
</svg>
