<svg width="40" height="40" viewBox="0 0 40 40" fill="none" xmlns="http://www.w3.org/2000/svg">
<path d="M33.0726 30.7972C32.3118 28.5328 29.2793 27.1154 27.1173 26.1653C26.2703 25.7943 23.9255 25.1649 23.6437 24.0984C23.5428 23.7142 23.5564 23.3519 23.6391 23.0048C23.5076 23.0306 23.3739 23.0439 23.2398 23.0444H21.8311C21.2906 23.0438 20.7723 22.8288 20.3902 22.4466C20.008 22.0643 19.7931 21.5461 19.7926 21.0056C19.7926 19.8824 20.7068 18.9693 21.8311 18.9693H23.2398C23.7052 18.9693 24.1465 19.1269 24.5023 19.4079C25.0087 19.3412 25.5085 19.2317 25.9965 19.0808C26.6126 17.7899 27.0931 16.2463 27.2008 14.9177C27.6606 9.23288 24.1756 5.90692 19.1787 6.4819C15.5456 6.9001 13.3753 9.60915 13.1407 13.0968C12.9034 16.6517 14.2215 19.2772 15.6215 21.2031C16.2347 22.0452 16.8788 22.5866 16.7798 23.6013C16.665 24.8011 15.382 25.1354 14.4644 25.5041C13.3772 25.9409 12.2061 26.6035 11.653 26.9099C9.74785 27.962 7.65686 29.229 7.1869 30.9623C6.14612 34.8035 9.66097 35.9671 12.5627 36.5043C15.053 36.9637 17.861 36.9999 20.1707 36.9999C24.3486 36.9999 31.8611 36.8326 33.0726 33.6921C33.4171 32.8009 33.2694 31.3809 33.0726 30.7972Z" fill="#13325F"/>
<path d="M24.1314 20.4318C24.0349 20.2833 23.9029 20.1612 23.7474 20.0766C23.5918 19.9919 23.4176 19.9474 23.2406 19.9471H21.8318C21.6901 19.9433 21.549 19.968 21.417 20.0196C21.2849 20.0712 21.1645 20.1488 21.063 20.2477C20.9614 20.3466 20.8806 20.4649 20.8255 20.5955C20.7704 20.7261 20.742 20.8665 20.742 21.0083C20.742 21.1501 20.7704 21.2904 20.8255 21.4211C20.8806 21.5517 20.9614 21.67 21.063 21.7689C21.1645 21.8678 21.2849 21.9453 21.417 21.997C21.549 22.0486 21.6901 22.0732 21.8318 22.0695H23.2406C23.4344 22.0693 23.6244 22.0156 23.7896 21.9144C23.9549 21.8131 24.0889 21.6682 24.1771 21.4956C26.1411 21.3411 27.8494 20.7412 29.0485 19.8553C29.3239 20.0329 29.6496 20.1368 30.0009 20.1368H30.0893C30.322 20.1368 30.5525 20.091 30.7675 20.0019C30.9825 19.9128 31.1779 19.7821 31.3424 19.6175C31.5069 19.4528 31.6373 19.2573 31.7261 19.0422C31.815 18.8271 31.8606 18.5966 31.8603 18.3638V14.8248C31.8604 14.4906 31.7656 14.1631 31.5869 13.8807C31.4082 13.5982 31.153 13.3722 30.8509 13.2291C30.591 7.54618 25.8865 3 20.1398 3C14.393 3 9.68778 7.54618 9.429 13.2291C9.12671 13.372 8.87126 13.5979 8.69241 13.8804C8.51356 14.1629 8.41868 14.4904 8.41882 14.8248V18.3638C8.41853 18.5965 8.46407 18.8269 8.55285 19.0419C8.64163 19.2569 8.7719 19.4523 8.93623 19.6169C9.10056 19.7816 9.29572 19.9122 9.51056 20.0014C9.7254 20.0906 9.95572 20.1366 10.1883 20.1368H10.2779C10.5106 20.1367 10.741 20.0908 10.9559 20.0017C11.1709 19.9125 11.3662 19.7819 11.5306 19.6172C11.695 19.4526 11.8254 19.2571 11.9143 19.0421C12.0031 18.827 12.0488 18.5965 12.0485 18.3638V14.8248C12.0483 14.4952 11.956 14.1723 11.7819 13.8924C11.6078 13.6126 11.3589 13.387 11.0633 13.2412C11.316 8.45284 15.2895 4.63616 20.1398 4.63616C24.9882 4.63616 28.9635 8.45284 29.2151 13.2412C28.9198 13.3872 28.6712 13.6129 28.4973 13.8927C28.3234 14.1725 28.2312 14.4954 28.231 14.8248V18.3638C28.231 18.5988 28.2767 18.8176 28.3572 19.0219C27.3251 19.7605 25.8227 20.2867 24.1314 20.4318Z" fill="#0066FF"/>
</svg>
