<svg width="40" height="40" viewBox="0 0 40 40" fill="none" xmlns="http://www.w3.org/2000/svg">
<path d="M16.6667 25C16.2246 25 15.8007 24.8244 15.4882 24.5118C15.1756 24.1993 15 23.7754 15 23.3333V16.6667C15 16.2246 15.1756 15.8007 15.4882 15.4882C15.8007 15.1756 16.2246 15 16.6667 15H23.3333C23.7754 15 24.1993 15.1756 24.5118 15.4882C24.8244 15.8007 25 16.2246 25 16.6667V23.3333C25 23.7754 24.8244 24.1993 24.5118 24.5118C24.1993 24.8244 23.7754 25 23.3333 25H16.6667Z" fill="#0066FF"/>
<path d="M35 18.3333C35 17.4493 34.6488 16.6014 34.0237 15.9763C33.3986 15.3512 32.5507 15 31.6667 15H28.0267C28.2242 15.5337 28.3279 16.0976 28.3333 16.6667V23.3333C28.332 24.659 27.8048 25.93 26.8674 26.8674C25.93 27.8048 24.659 28.332 23.3333 28.3333H16.6667C16.0976 28.3278 15.5338 28.2241 15 28.0267V31.6667C15 32.5507 15.3512 33.3986 15.9763 34.0237C16.6014 34.6488 17.4493 35 18.3333 35H31.6667C32.5507 35 33.3986 34.6488 34.0237 34.0237C34.6488 33.3986 35 32.5507 35 31.6667V18.3333ZM8.33333 5C7.44928 5 6.60143 5.35119 5.97631 5.97631C5.35119 6.60143 5 7.44928 5 8.33333V21.6667C5 22.5507 5.35119 23.3986 5.97631 24.0237C6.60143 24.6488 7.44928 25 8.33333 25H11.9733C11.7759 24.4662 11.6722 23.9024 11.6667 23.3333V16.6667C11.668 15.341 12.1952 14.07 13.1326 13.1326C14.07 12.1952 15.341 11.668 16.6667 11.6667H23.3333C23.9024 11.6721 24.4663 11.7758 25 11.9733V8.33333C25 7.44928 24.6488 6.60143 24.0237 5.97631C23.3986 5.35119 22.5507 5 21.6667 5H8.33333Z" fill="#13325F"/>
</svg>
