<svg width="40" height="40" viewBox="0 0 40 40" fill="none" xmlns="http://www.w3.org/2000/svg">
<path d="M17.5 11C17.5 10.4477 17.0516 9.99584 16.501 10.04C14.3808 10.2099 12.3331 10.9188 10.5554 12.1066C8.49976 13.4801 6.89761 15.4324 5.95151 17.7165C5.00542 20.0005 4.75787 22.5139 5.24019 24.9386C5.7225 27.3634 6.91301 29.5907 8.66117 31.3388C10.4093 33.087 12.6366 34.2775 15.0614 34.7598C17.4861 35.2421 19.9995 34.9946 22.2835 34.0485C24.5676 33.1024 26.5199 31.5002 27.8934 29.4446C29.0812 27.6669 29.7901 25.6192 29.96 23.499C30.0042 22.9485 29.5523 22.5 29 22.5H18.5C17.9477 22.5 17.5 22.0523 17.5 21.5V11Z" fill="#0066FF" fill-opacity="0.3"/>
<path d="M22.5 16.5C22.5 17.0523 22.9477 17.5 23.5 17.5H34C34.5523 17.5 35.0042 17.0515 34.96 16.501C34.7237 13.5515 33.4464 10.7688 31.3388 8.66117C29.2312 6.55358 26.4485 5.27633 23.499 5.03995C22.9485 4.99584 22.5 5.44772 22.5 6V16.5Z" fill="#0066FF"/>
</svg>
