<svg width="40" height="40" viewBox="0 0 40 40" fill="none" xmlns="http://www.w3.org/2000/svg">
<path d="M34.7077 10.477C34.7077 14.4955 28.1911 17.7538 20.1538 17.7538C12.1165 17.7538 5.59998 14.4955 5.59998 10.477M34.7077 10.477C34.7077 6.4583 28.1911 3.2 20.1538 3.2C12.1165 3.2 5.59998 6.4583 5.59998 10.477M34.7077 10.477V30.323C34.7077 34.3417 28.1911 37.6 20.1538 37.6C12.1165 37.6 5.59998 34.3417 5.59998 30.323V10.477M34.7077 10.477V17.0923ZM5.59998 10.477V17.0923ZM34.7077 17.0923V23.7077C34.7077 27.7263 28.1911 30.9846 20.1538 30.9846C12.1165 30.9846 5.59998 27.7263 5.59998 23.7077V17.0923M34.7077 17.0923C34.7077 21.111 28.1911 24.3692 20.1538 24.3692C12.1165 24.3692 5.59998 21.111 5.59998 17.0923" fill="#0066FF" fill-opacity="0.3"/>
<path d="M34.7077 10.477C34.7077 14.4955 28.1911 17.7538 20.1538 17.7538C12.1165 17.7538 5.59998 14.4955 5.59998 10.477M34.7077 10.477C34.7077 6.4583 28.1911 3.2 20.1538 3.2C12.1165 3.2 5.59998 6.4583 5.59998 10.477M34.7077 10.477V30.323C34.7077 34.3417 28.1911 37.6 20.1538 37.6C12.1165 37.6 5.59998 34.3417 5.59998 30.323V10.477M34.7077 10.477V17.0923M5.59998 10.477V17.0923M34.7077 17.0923V23.7077C34.7077 27.7263 28.1911 30.9846 20.1538 30.9846C12.1165 30.9846 5.59998 27.7263 5.59998 23.7077V17.0923M34.7077 17.0923C34.7077 21.111 28.1911 24.3692 20.1538 24.3692C12.1165 24.3692 5.59998 21.111 5.59998 17.0923" stroke="#1A1A1A" stroke-linecap="round" stroke-linejoin="round"/>
<path d="M34.7078 10.4769C34.7078 14.4955 28.1912 17.7538 20.1539 17.7538C12.1167 17.7538 5.6001 14.4955 5.6001 10.4769M34.7078 10.4769C34.7078 6.45825 28.1912 3.19995 20.1539 3.19995C12.1167 3.19995 5.6001 6.45825 5.6001 10.4769" fill="#0066FF"/>
</svg>
