<svg width="16" height="16" viewBox="0 0 16 16" fill="none" xmlns="http://www.w3.org/2000/svg">
<g clip-path="url(#clip0_4862_3)">
<path d="M16 15.6458V9.72977C16 6.55977 14.308 5.08477 12.052 5.08477C10.2315 5.08477 9.4155 6.08627 8.961 6.78927V5.32727H5.531C5.5765 6.29577 5.531 15.6458 5.531 15.6458H8.961V9.88327C8.961 9.57577 8.983 9.26727 9.074 9.04727C9.3215 8.43077 9.886 7.79277 10.833 7.79277C12.0745 7.79277 12.5705 8.73877 12.5705 10.1258V15.6463L16 15.6458ZM1.9175 3.91877C3.113 3.91877 3.8585 3.12577 3.8585 2.13527C3.8365 1.12327 3.1135 0.353271 1.9405 0.353271C0.7675 0.353271 0 1.12277 0 2.13527C0 3.12577 0.7445 3.91877 1.896 3.91877H1.9175ZM3.6325 15.6458V5.32727H0.203V15.6458H3.6325Z" fill="white"/>
</g>
<defs>
<clipPath id="clip0_4862_3">
<rect width="16" height="16" fill="white"/>
</clipPath>
</defs>
</svg>
