<svg width="134" height="32" viewBox="0 0 134 32" fill="none" xmlns="http://www.w3.org/2000/svg">
<g clip-path="url(#clip0_18651_11706)">
<path d="M41.1061 21.9613H50.4345V19.1516H44.4216V8.56818H41.1061V21.9613Z" fill="#707070"/>
<path d="M55.9612 20.0882C54.6312 20.0882 53.9381 18.9268 53.9381 17.1848C53.9381 15.4427 54.6312 14.2626 55.9612 14.2626C57.2911 14.2626 58.0029 15.4427 58.0029 17.1848C58.0029 18.9268 57.2911 20.0882 55.9612 20.0882ZM55.9799 22.261C59.0706 22.261 61.0937 20.0694 61.0937 17.1848C61.0937 14.3001 59.0706 12.1085 55.9799 12.1085C52.9079 12.1085 50.8474 14.3001 50.8474 17.1848C50.8474 20.0694 52.9079 22.261 55.9799 22.261Z" fill="#707070"/>
<path d="M66.4434 25.2768C67.867 25.2768 69.1221 24.9584 69.965 24.2091C70.733 23.5161 71.2387 22.4671 71.2387 21.0247V12.3707H68.3166V13.4009H68.2791C67.7172 12.5955 66.8555 12.0897 65.5818 12.0897C63.2028 12.0897 61.5544 14.0753 61.5544 16.885C61.5544 19.8259 63.5587 21.4368 65.7129 21.4368C66.8743 21.4368 67.6048 20.9685 68.1667 20.3317H68.2417V21.287C68.2417 22.4484 67.6984 23.1227 66.406 23.1227C65.3944 23.1227 64.8887 22.6919 64.7201 22.1861H61.7605C62.0602 24.1904 63.8022 25.2768 66.4434 25.2768ZM66.4247 19.1703C65.2821 19.1703 64.5328 18.2337 64.5328 16.7914C64.5328 15.3303 65.2821 14.3937 66.4247 14.3937C67.6984 14.3937 68.3728 15.4802 68.3728 16.7726C68.3728 18.1213 67.7546 19.1703 66.4247 19.1703Z" fill="#707070"/>
<path d="M77.2473 20.0882C75.9174 20.0882 75.2243 18.9268 75.2243 17.1848C75.2243 15.4427 75.9174 14.2626 77.2473 14.2626C78.5773 14.2626 79.2891 15.4427 79.2891 17.1848C79.2891 18.9268 78.5773 20.0882 77.2473 20.0882ZM77.266 22.261C80.3568 22.261 82.3798 20.0694 82.3798 17.1848C82.3798 14.3001 80.3568 12.1085 77.266 12.1085C74.194 12.1085 72.1335 14.3001 72.1335 17.1848C72.1335 20.0694 74.194 22.261 77.266 22.261Z" fill="#707070"/>
<path d="M83.2711 21.9613H86.3244V12.3707H83.2711V21.9613ZM83.2711 11.0408H86.3244V8.56818H83.2711V11.0408Z" fill="#707070"/>
<path d="M87.6495 25.127H90.7028V20.9685H90.7403C91.3397 21.774 92.2201 22.261 93.4564 22.261C95.9664 22.261 97.6335 20.2755 97.6335 17.166C97.6335 14.2813 96.0788 12.0897 93.5313 12.0897C92.2201 12.0897 91.2835 12.6704 90.6279 13.5321H90.5717V12.3707H87.6495V25.127ZM92.6696 19.9008C91.3584 19.9008 90.6091 18.8331 90.6091 17.2784C90.6091 15.7237 91.2835 14.5436 92.6134 14.5436C93.9247 14.5436 94.5428 15.63 94.5428 17.2784C94.5428 18.9081 93.831 19.9008 92.6696 19.9008Z" fill="#707070"/>
<path d="M102.605 22.261C105.115 22.261 106.969 21.1746 106.969 19.0766C106.969 16.6228 104.983 16.192 103.298 15.911C102.08 15.6862 100.994 15.5926 100.994 14.9182C100.994 14.3188 101.574 14.0378 102.324 14.0378C103.166 14.0378 103.747 14.3001 103.86 15.1617H106.669C106.519 13.2698 105.058 12.0897 102.342 12.0897C100.076 12.0897 98.2026 13.1387 98.2026 15.1617C98.2026 17.4095 99.9821 17.8591 101.649 18.1401C102.923 18.3648 104.084 18.4585 104.084 19.3202C104.084 19.9383 103.504 20.2755 102.586 20.2755C101.574 20.2755 100.937 19.8072 100.825 18.8519H97.9403C98.034 20.9686 99.7947 22.261 102.605 22.261Z" fill="#707070"/>
<path d="M111.116 22.2423C112.446 22.2423 113.289 21.7178 113.982 20.7812H114.039V21.9613H116.961V12.3707H113.907V17.7279C113.907 18.8706 113.271 19.6573 112.222 19.6573C111.248 19.6573 110.779 19.0766 110.779 18.0276V12.3707H107.745V18.6645C107.745 20.7999 108.906 22.2423 111.116 22.2423Z" fill="#707070"/>
<path d="M118.288 21.9613H121.342V16.5853C121.342 15.4427 121.904 14.6372 122.859 14.6372C123.777 14.6372 124.208 15.2366 124.208 16.2669V21.9613H127.261V16.5853C127.261 15.4427 127.804 14.6372 128.778 14.6372C129.696 14.6372 130.127 15.2366 130.127 16.2669V21.9613H133.18V15.7237C133.18 13.5695 132.094 12.0897 129.921 12.0897C128.685 12.0897 127.654 12.6142 126.905 13.7756H126.868C126.381 12.7453 125.425 12.0897 124.17 12.0897C122.784 12.0897 121.866 12.7453 121.267 13.7381H121.211V12.3707H118.288V21.9613Z" fill="#707070"/>
<path fill-rule="evenodd" clip-rule="evenodd" d="M16.7736 31.3272C25.3946 31.3272 32.3833 24.3385 32.3833 15.7175C32.3833 7.09646 25.3946 0.107727 16.7736 0.107727C8.15253 0.107727 1.16382 7.09646 1.16382 15.7175C1.16382 24.3385 8.15253 31.3272 16.7736 31.3272ZM21.6433 7.37941C21.8803 6.53742 21.0632 6.03953 20.317 6.57118L9.89991 13.9923C9.09062 14.5688 9.21792 15.7175 10.0911 15.7175H12.8342V15.6962H18.1804L13.8243 17.2332L11.9039 24.0556C11.6669 24.8976 12.4839 25.3954 13.2302 24.8638L23.6473 17.4427C24.4566 16.8662 24.3292 15.7175 23.456 15.7175H19.2962L21.6433 7.37941Z" fill="#707070"/>
</g>
<defs>
<clipPath id="clip0_18651_11706">
<rect width="132.683" height="32" fill="white" transform="translate(0.629883)"/>
</clipPath>
</defs>
</svg>
