<svg width="142" height="32" viewBox="0 0 142 32" fill="none" xmlns="http://www.w3.org/2000/svg">
<path d="M41.4735 21.226C41.4735 21.9075 41.3335 22.4312 41.0538 22.797C40.7812 23.1629 40.3257 23.3458 39.6873 23.3458C39.0846 23.3458 38.6578 23.1629 38.4067 22.797C38.1628 22.4312 38.0409 21.9075 38.0409 21.226V9.8523C38.0409 9.17079 38.1628 8.64712 38.4067 8.28127C38.6578 7.91541 39.0846 7.73248 39.6873 7.73248C40.3257 7.73248 40.7812 7.91541 41.0538 8.28127C41.3335 8.64712 41.4735 9.17079 41.4735 9.8523V21.226Z" fill="#707070"/>
<path d="M42.5155 17.9226C42.5155 17.1621 42.6374 16.4448 42.8814 15.7705C43.1325 15.089 43.5054 14.4936 44.0004 13.9843C44.5026 13.4749 45.1267 13.0696 45.8728 12.7684C46.626 12.467 47.5083 12.3164 48.5198 12.3164C49.4883 12.3164 50.3455 12.4563 51.0916 12.736C51.8376 13.0158 52.4653 13.4068 52.9746 13.909C53.4839 14.4039 53.8713 14.9957 54.1368 15.6843C54.4021 16.3659 54.5349 17.1119 54.5349 17.9226C54.5349 18.6758 54.4093 19.3896 54.1583 20.0639C53.9072 20.731 53.5306 21.3193 53.0284 21.8286C52.5263 22.3307 51.8986 22.7324 51.1454 23.0338C50.3921 23.3279 49.5169 23.4749 48.5198 23.4749C47.5371 23.4749 46.6691 23.3351 45.9158 23.0553C45.1697 22.7683 44.5421 22.3774 44.0328 21.8823C43.5306 21.3803 43.1504 20.792 42.8922 20.1177C42.641 19.4362 42.5155 18.7045 42.5155 17.9226ZM46.0988 17.9226C46.0988 18.396 46.1417 18.848 46.2279 19.2784C46.3139 19.7016 46.4503 20.0746 46.6368 20.3975C46.8304 20.7202 47.0815 20.9785 47.39 21.1722C47.6985 21.3587 48.0751 21.452 48.5198 21.452C48.9287 21.452 49.2838 21.3659 49.5851 21.1937C49.8936 21.0216 50.1446 20.7812 50.3384 20.4728C50.5392 20.1643 50.6899 19.7949 50.7902 19.3645C50.8907 18.9269 50.9409 18.4463 50.9409 17.9226C50.9409 17.4491 50.8943 17.0007 50.8011 16.5775C50.7149 16.1471 50.5751 15.7705 50.3813 15.4476C50.1877 15.1177 49.9367 14.8594 49.6281 14.6729C49.3269 14.4793 48.9574 14.3824 48.5198 14.3824C48.0822 14.3824 47.7092 14.4756 47.4007 14.6622C47.0923 14.8487 46.8412 15.1033 46.6475 15.4261C46.4538 15.749 46.3139 16.1256 46.2279 16.556C46.1417 16.9864 46.0988 17.4419 46.0988 17.9226Z" fill="#707070"/>
<path d="M63.3675 21.2691C63.1737 21.6277 62.937 21.9326 62.6572 22.1837C62.3847 22.4347 62.0798 22.6428 61.7427 22.8078C61.4127 22.9656 61.0576 23.0839 60.6774 23.1629C60.3043 23.2346 59.9206 23.2705 59.526 23.2705C58.866 23.2705 58.2635 23.1521 57.7182 22.9153C57.1731 22.6786 56.7032 22.3379 56.3087 21.8932C55.9213 21.4412 55.62 20.8888 55.4048 20.2361C55.1895 19.5832 55.0819 18.8372 55.0819 17.9979C55.0819 17.2088 55.1824 16.4699 55.3833 15.7812C55.5841 15.0926 55.8746 14.4936 56.2548 13.9843C56.6422 13.4749 57.1157 13.0732 57.6752 12.7791C58.2347 12.485 58.8732 12.3379 59.5906 12.3379C60.4083 12.3379 61.1329 12.4957 61.7642 12.8113C62.4026 13.127 62.9514 13.6435 63.4105 14.3608V14.0811C63.4105 13.5646 63.5504 13.1772 63.8302 12.9189C64.1171 12.6536 64.5117 12.5208 65.0138 12.5208C65.3151 12.5208 65.5697 12.571 65.7778 12.6715C65.9858 12.7648 66.1508 12.9082 66.2727 13.1019C66.3948 13.2884 66.4808 13.5216 66.531 13.8014C66.5884 14.0739 66.6171 14.386 66.6171 14.7375V21.947C66.6171 22.8221 66.506 23.604 66.2836 24.2927C66.0683 24.9813 65.7312 25.5625 65.272 26.0359C64.8129 26.5093 64.2247 26.868 63.5073 27.112C62.79 27.363 61.9363 27.4885 60.9464 27.4885C60.2506 27.4885 59.6336 27.4563 59.0955 27.3917C58.5647 27.3344 58.1056 27.2447 57.7182 27.1227C57.3309 26.9864 57.0368 26.8358 56.8359 26.6708C56.6422 26.5058 56.5454 26.2905 56.5454 26.0252C56.5454 25.8745 56.5669 25.7311 56.6099 25.5947C56.653 25.4584 56.7175 25.3365 56.8036 25.2289C56.8969 25.1284 57.0152 25.046 57.1587 24.9813C57.3093 24.924 57.4922 24.8953 57.7075 24.8953C57.937 24.8953 58.1666 24.9096 58.3961 24.9384C58.6329 24.967 58.8768 24.9958 59.1279 25.0244C59.3861 25.0603 59.6551 25.0925 59.9349 25.1213C60.2218 25.1499 60.5303 25.1643 60.8603 25.1643C61.2548 25.1643 61.6063 25.1249 61.9149 25.046C62.2233 24.967 62.4851 24.8272 62.7003 24.6263C62.9155 24.4254 63.0805 24.1564 63.1953 23.8192C63.3101 23.4892 63.3675 23.066 63.3675 22.5495V21.2691ZM63.3675 17.9226C63.3675 17.3988 63.328 16.9218 63.2491 16.4915C63.1774 16.061 63.0518 15.6952 62.8725 15.3938C62.6931 15.0854 62.4528 14.8487 62.1516 14.6837C61.8502 14.5115 61.4736 14.4255 61.0217 14.4255C60.5769 14.4255 60.2075 14.5151 59.9134 14.6944C59.6265 14.8737 59.3969 15.1213 59.2247 15.4369C59.0526 15.7526 58.9306 16.122 58.8588 16.5453C58.7943 16.9685 58.762 17.4204 58.762 17.901C58.762 18.9986 58.9557 19.8236 59.3431 20.3759C59.7304 20.9283 60.2936 21.2045 61.0324 21.2045C61.3768 21.1973 61.6889 21.1327 61.9686 21.0108C62.2555 20.8817 62.5031 20.6844 62.711 20.419C62.9191 20.1535 63.0805 19.8163 63.1953 19.4075C63.3101 18.9986 63.3675 18.5037 63.3675 17.9226Z" fill="#707070"/>
<path d="M67.6053 17.9226C67.6053 17.1621 67.7273 16.4448 67.9712 15.7705C68.2223 15.089 68.5953 14.4936 69.0903 13.9843C69.5925 13.4749 70.2165 13.0696 70.9625 12.7684C71.7159 12.467 72.5982 12.3164 73.6097 12.3164C74.578 12.3164 75.4353 12.4563 76.1813 12.736C76.9274 13.0158 77.5551 13.4068 78.0644 13.909C78.5738 14.4039 78.9612 14.9957 79.2265 15.6843C79.492 16.3659 79.6247 17.1119 79.6247 17.9226C79.6247 18.6758 79.4992 19.3896 79.2481 20.0639C78.997 20.731 78.6204 21.3193 78.1182 21.8286C77.6161 22.3307 76.9884 22.7324 76.2352 23.0338C75.4819 23.3279 74.6068 23.4749 73.6097 23.4749C72.6268 23.4749 71.7588 23.3351 71.0056 23.0553C70.2596 22.7683 69.6319 22.3774 69.1225 21.8823C68.6204 21.3803 68.2402 20.792 67.9819 20.1177C67.7309 19.4362 67.6053 18.7045 67.6053 17.9226ZM71.1885 17.9226C71.1885 18.396 71.2316 18.848 71.3177 19.2784C71.4038 19.7016 71.54 20.0746 71.7266 20.3975C71.9202 20.7202 72.1713 20.9785 72.4798 21.1722C72.7882 21.3587 73.1649 21.452 73.6097 21.452C74.0186 21.452 74.3736 21.3659 74.6749 21.1937C74.9833 21.0216 75.2345 20.7812 75.4281 20.4728C75.629 20.1643 75.7796 19.7949 75.8801 19.3645C75.9805 18.9269 76.0308 18.4463 76.0308 17.9226C76.0308 17.4491 75.9841 17.0007 75.8908 16.5775C75.8048 16.1471 75.6648 15.7705 75.4712 15.4476C75.2775 15.1177 75.0264 14.8594 74.718 14.6729C74.4167 14.4793 74.0472 14.3824 73.6097 14.3824C73.1721 14.3824 72.799 14.4756 72.4906 14.6622C72.1821 14.8487 71.931 15.1033 71.7373 15.4261C71.5437 15.749 71.4038 16.1256 71.3177 16.556C71.2316 16.9864 71.1885 17.4419 71.1885 17.9226Z" fill="#707070"/>
<path d="M84.2392 8.69012C84.2392 8.92686 84.1854 9.13847 84.0778 9.32499C83.9702 9.50433 83.8303 9.65493 83.6582 9.77696C83.486 9.8989 83.2851 9.9921 83.0555 10.0567C82.8332 10.114 82.6037 10.1428 82.3669 10.1428C82.1158 10.1428 81.8755 10.1105 81.646 10.0459C81.4236 9.98136 81.2264 9.88816 81.0542 9.76613C80.882 9.63703 80.7457 9.4828 80.6452 9.30347C80.5449 9.12413 80.4946 8.91968 80.4946 8.69012C80.4946 8.48209 80.5413 8.29199 80.6345 8.11982C80.7349 7.94049 80.8676 7.78625 81.0326 7.65712C81.1976 7.528 81.395 7.42757 81.6245 7.35584C81.8541 7.2841 82.1051 7.24823 82.3777 7.24823C82.6144 7.24823 82.844 7.28051 83.0664 7.34507C83.2959 7.40964 83.4968 7.50289 83.6689 7.62485C83.8411 7.7468 83.9774 7.89744 84.0778 8.07678C84.1854 8.25612 84.2392 8.46057 84.2392 8.69012ZM84.0778 21.226C84.0778 21.9075 83.938 22.4312 83.6582 22.797C83.3856 23.1629 82.93 23.3458 82.2916 23.3458C81.6891 23.3458 81.2622 23.1629 81.0111 22.797C80.7672 22.4312 80.6452 21.9075 80.6452 21.226V14.6406C80.6452 13.9591 80.7672 13.4354 81.0111 13.0696C81.2622 12.7038 81.6891 12.5208 82.2916 12.5208C82.93 12.5208 83.3856 12.7038 83.6582 13.0696C83.938 13.4354 84.0778 13.9591 84.0778 14.6406V21.226Z" fill="#707070"/>
<path d="M89.0258 17.901C89.0258 18.3817 89.0617 18.83 89.1335 19.2461C89.2123 19.6622 89.3414 20.028 89.5208 20.3437C89.7074 20.6521 89.9512 20.896 90.2525 21.0753C90.5609 21.2547 90.9412 21.3444 91.3931 21.3444C91.8092 21.3444 92.1571 21.2583 92.4371 21.0862C92.7236 20.9068 92.9532 20.6629 93.1258 20.3544C93.2975 20.0387 93.4196 19.6693 93.4913 19.2461C93.5702 18.8228 93.6097 18.3637 93.6097 17.8688C93.6097 17.4742 93.5812 17.0725 93.5234 16.6636C93.4665 16.2475 93.359 15.8709 93.2011 15.5338C93.0432 15.1966 92.8246 14.9204 92.5446 14.7052C92.2645 14.49 91.8991 14.3824 91.4469 14.3824C90.995 14.3824 90.6112 14.4541 90.2956 14.5976C89.987 14.7411 89.736 14.9599 89.5423 15.254C89.3558 15.5481 89.2231 15.9176 89.1442 16.3623C89.0652 16.7999 89.0258 17.3128 89.0258 17.901ZM89.0151 14.6406C89.1944 14.2605 89.424 13.9269 89.7038 13.6399C89.9835 13.353 90.292 13.1127 90.6292 12.9189C90.9663 12.7253 91.3178 12.5818 91.6836 12.4886C92.057 12.3881 92.4261 12.3379 92.7916 12.3379C93.4518 12.3379 94.0477 12.485 94.5784 12.7791C95.1092 13.0732 95.5609 13.4749 95.9337 13.9843C96.3139 14.4864 96.6049 15.0818 96.806 15.7705C97.0062 16.452 97.1072 17.1837 97.1072 17.9656C97.1072 18.7762 96.9989 19.5187 96.784 20.193C96.5765 20.8673 96.2781 21.4484 95.8906 21.9361C95.5104 22.4168 95.0513 22.7934 94.5132 23.066C93.9825 23.3386 93.3912 23.4749 92.7383 23.4749C91.9349 23.4749 91.2174 23.2884 90.5861 22.9153C89.9548 22.5424 89.4312 22.0187 89.0151 21.3444V25.2181C89.0151 25.8996 88.8752 26.4233 88.5954 26.7891C88.3228 27.1549 87.8673 27.3379 87.2288 27.3379C86.6263 27.3379 86.1994 27.1549 85.9483 26.7891C85.7045 26.4233 85.5825 25.8996 85.5825 25.2181V14.6406C85.5825 13.9591 85.7045 13.4354 85.9483 13.0696C86.1994 12.7038 86.6263 12.5208 87.2288 12.5208C87.8673 12.5208 88.3228 12.7038 88.5954 13.0696C88.8752 13.4354 89.0151 13.9591 89.0151 14.6406Z" fill="#707070"/>
<path d="M100.893 15.4047C100.893 15.6843 101.015 15.9032 101.258 16.061C101.503 16.2117 101.84 16.3372 102.27 16.4377C102.679 16.5309 103.099 16.6206 103.529 16.7066C103.96 16.7927 104.379 16.8932 104.788 17.008C105.197 17.1155 105.581 17.2447 105.94 17.3953C106.298 17.546 106.614 17.736 106.886 17.9656C107.159 18.188 107.374 18.4606 107.532 18.7833C107.69 19.099 107.769 19.4793 107.769 19.924C107.769 20.4835 107.654 20.9821 107.424 21.4196C107.195 21.8501 106.869 22.2159 106.445 22.5173C106.03 22.8186 105.531 23.0517 104.95 23.2167C104.368 23.3817 103.727 23.4677 103.023 23.4749C102.357 23.4749 101.714 23.4319 101.097 23.3458C100.481 23.2669 99.9316 23.1413 99.4505 22.9691C98.9776 22.797 98.5974 22.5854 98.31 22.3343C98.0236 22.0761 97.8803 21.7748 97.8803 21.4305C97.8803 21.1291 97.9767 20.896 98.1705 20.731C98.3642 20.5661 98.6112 20.4835 98.9133 20.4835C99.0281 20.4835 99.164 20.505 99.3219 20.5481C99.4799 20.5911 99.6516 20.6449 99.838 20.7095C100.024 20.774 100.222 20.8458 100.43 20.9247C100.645 20.9964 100.867 21.061 101.097 21.1184C101.384 21.1973 101.678 21.2619 101.979 21.3121C102.288 21.3551 102.604 21.3767 102.927 21.3767C103.127 21.3767 103.324 21.3587 103.518 21.3229C103.712 21.2798 103.885 21.2188 104.035 21.14C104.193 21.0538 104.322 20.9462 104.423 20.8171C104.523 20.688 104.583 20.5302 104.605 20.3437C104.626 20.3006 104.645 20.2575 104.659 20.2145C104.673 20.1715 104.681 20.1213 104.681 20.0639C104.681 19.863 104.587 19.6837 104.401 19.5258C104.222 19.3681 103.966 19.2425 103.637 19.1493C103.084 19.0202 102.557 18.9018 102.055 18.7942C101.553 18.6866 101.087 18.5718 100.656 18.4498C100.233 18.3279 99.8453 18.188 99.4936 18.0301C99.1493 17.8724 98.8555 17.6786 98.6112 17.4491C98.3752 17.2195 98.1879 16.9433 98.052 16.6206C97.9226 16.2977 97.8583 15.9067 97.8583 15.4476C97.8583 14.9527 97.9694 14.5115 98.1916 14.1241C98.4211 13.7295 98.748 13.3996 99.1713 13.1342C99.5946 12.8687 100.107 12.6679 100.71 12.5316C101.313 12.3881 101.994 12.3164 102.754 12.3164C104.117 12.3164 105.154 12.4814 105.864 12.8113C106.581 13.1342 106.94 13.5574 106.94 14.0811C106.94 14.3752 106.843 14.6012 106.649 14.759C106.456 14.9096 106.222 14.9849 105.951 14.9849C105.806 14.9849 105.656 14.9599 105.498 14.9096C105.347 14.8523 105.165 14.7913 104.95 14.7267C104.734 14.655 104.476 14.5941 104.175 14.5438C103.881 14.4864 103.515 14.4577 103.077 14.4577C102.747 14.4577 102.446 14.472 102.173 14.5008C101.908 14.5294 101.678 14.5796 101.484 14.6514C101.298 14.7232 101.151 14.8199 101.044 14.942C100.943 15.0639 100.893 15.2181 100.893 15.4047Z" fill="#707070"/>
<path d="M112.136 19.3537C112.136 19.6908 112.179 19.9849 112.265 20.2361C112.358 20.4871 112.484 20.6988 112.642 20.8709C112.8 21.0359 112.982 21.1615 113.19 21.2475C113.406 21.3265 113.635 21.3659 113.879 21.3659C114.166 21.3659 114.442 21.3229 114.708 21.2367C114.973 21.1507 115.206 21.0179 115.407 20.8386C115.615 20.6593 115.78 20.4333 115.902 20.1607C116.024 19.8882 116.085 19.5689 116.085 19.2031V14.6406C116.085 13.9591 116.207 13.4355 116.451 13.0696C116.702 12.7038 117.129 12.5208 117.731 12.5208C118.37 12.5208 118.825 12.7038 119.098 13.0696C119.378 13.4355 119.517 13.9591 119.517 14.6406V21.226C119.517 21.9075 119.378 22.4312 119.098 22.797C118.825 23.1629 118.37 23.3458 117.731 23.3458C117.129 23.3458 116.702 23.1629 116.451 22.797C116.207 22.4312 116.085 21.9075 116.085 21.226C115.934 21.556 115.737 21.8573 115.493 22.1299C115.256 22.4025 114.977 22.6392 114.654 22.8401C114.338 23.0338 113.987 23.1844 113.599 23.292C113.219 23.3996 112.806 23.4534 112.362 23.4534C111.881 23.4534 111.419 23.3709 110.973 23.206C110.536 23.0338 110.149 22.7827 109.812 22.4527C109.475 22.1156 109.206 21.6994 109.005 21.2045C108.804 20.7095 108.703 20.132 108.703 19.472V14.6406C108.703 13.9591 108.826 13.4355 109.069 13.0696C109.321 12.7038 109.747 12.5208 110.35 12.5208C110.988 12.5208 111.443 12.7038 111.716 13.0696C111.996 13.4355 112.136 13.9591 112.136 14.6406V19.3537Z" fill="#707070"/>
<path d="M121.076 14.6406C121.076 13.9591 121.198 13.4354 121.442 13.0696C121.693 12.7038 122.12 12.5208 122.722 12.5208C123.361 12.5208 123.816 12.7038 124.089 13.0696C124.368 13.4354 124.509 13.9591 124.509 14.6406C124.652 14.2963 124.846 13.9843 125.09 13.7045C125.341 13.4175 125.624 13.1737 125.939 12.9727C126.263 12.7719 126.611 12.6177 126.983 12.5101C127.356 12.3953 127.744 12.3379 128.146 12.3379C128.519 12.3379 128.884 12.3881 129.243 12.4886C129.609 12.5818 129.947 12.736 130.255 12.9513C130.57 13.1592 130.846 13.4247 131.083 13.7475C131.32 14.0703 131.503 14.4577 131.632 14.9096C131.855 14.429 132.116 14.0237 132.417 13.6937C132.719 13.3637 133.045 13.0983 133.396 12.8975C133.748 12.6965 134.114 12.5531 134.494 12.467C134.882 12.381 135.268 12.3379 135.656 12.3379C136.115 12.3379 136.553 12.4204 136.969 12.5854C137.392 12.7504 137.761 13.0015 138.077 13.3387C138.401 13.6686 138.655 14.0883 138.841 14.5976C139.035 15.0997 139.131 15.688 139.131 16.3623V21.226C139.131 21.9075 138.992 22.4312 138.712 22.797C138.44 23.1629 137.984 23.3458 137.346 23.3458C136.743 23.3458 136.316 23.1629 136.066 22.797C135.821 22.4312 135.699 21.9075 135.699 21.226V16.5129C135.699 16.1901 135.656 15.9032 135.571 15.6521C135.484 15.3938 135.362 15.1787 135.204 15.0065C135.054 14.8272 134.875 14.6944 134.666 14.6084C134.459 14.5151 134.236 14.4684 134 14.4684C133.705 14.4684 133.426 14.5151 133.16 14.6084C132.895 14.7016 132.662 14.8451 132.461 15.0387C132.267 15.2325 132.109 15.48 131.987 15.7812C131.872 16.0825 131.815 16.4448 131.815 16.868V21.226C131.815 21.9075 131.675 22.4312 131.395 22.797C131.123 23.1629 130.667 23.3458 130.028 23.3458C129.426 23.3458 128.999 23.1629 128.748 22.797C128.504 22.4312 128.382 21.9075 128.382 21.226V16.7173C128.382 15.9785 128.228 15.419 127.92 15.0387C127.618 14.6586 127.206 14.4684 126.682 14.4684C126.374 14.4684 126.086 14.5187 125.821 14.6191C125.556 14.7196 125.326 14.8666 125.132 15.0603C124.939 15.254 124.784 15.4943 124.669 15.7812C124.562 16.0682 124.509 16.3982 124.509 16.7712V21.226C124.509 21.9075 124.368 22.4312 124.089 22.797C123.816 23.1629 123.361 23.3458 122.722 23.3458C122.12 23.3458 121.693 23.1629 121.442 22.797C121.198 22.4312 121.076 21.9075 121.076 21.226V14.6406Z" fill="#707070"/>
<path d="M15.6629 21.5094C12.6202 21.5094 10.1536 19.0428 10.1536 16C10.1536 12.9573 12.6202 10.4907 15.6629 10.4907C18.7056 10.4907 21.1722 12.9573 21.1722 16C21.1722 19.0428 18.7056 21.5094 15.6629 21.5094Z" fill="#707070"/>
<path d="M4.98967 17.882C3.39312 18.1635 2.29876 19.7058 2.91163 21.2067C3.76726 23.3021 5.13232 25.169 6.90201 26.6279C9.43255 28.7138 12.6243 29.8284 15.9033 29.7712C19.1822 29.714 22.3332 28.4886 24.7894 26.3156C26.507 24.7959 27.8061 22.8824 28.5882 20.7585C29.1483 19.2371 28.0007 17.734 26.3953 17.5084C24.79 17.2828 23.3486 18.4513 22.5556 19.8654C22.1258 20.6318 21.5678 21.3272 20.8993 21.9186C19.49 23.1654 17.6821 23.8684 15.8009 23.9013C13.9195 23.9341 12.0882 23.2946 10.6363 22.0977C9.94758 21.53 9.3657 20.8545 8.90936 20.1035C8.06755 18.718 6.58623 17.6005 4.98967 17.882Z" fill="#707070"/>
<path d="M29.3296 17.7213C29.4 17.1574 29.4362 16.5829 29.4362 16.0001C29.4362 8.39327 23.2697 2.22675 15.6628 2.22675C8.05605 2.22675 1.88953 8.39327 1.88953 16.0001C1.88953 16.7481 1.94916 17.4823 2.06395 18.198C2.69659 17.3319 3.68397 16.7137 4.75048 16.5256C5.9044 16.3222 6.95313 16.602 7.83985 17.1252C7.78746 16.7577 7.76035 16.382 7.76035 16.0001C7.76035 11.6357 11.2984 8.09757 15.6628 8.09757C20.0272 8.09757 23.5653 11.6357 23.5653 16.0001C23.5653 16.2878 23.5499 16.572 23.52 16.8518C24.388 16.2978 25.4265 15.9813 26.587 16.1445C27.6591 16.2952 28.6671 16.8782 29.3296 17.7213Z" fill="#707070"/>
</svg>
