<svg width="60" height="60" viewBox="0 0 60 60" fill="none" xmlns="http://www.w3.org/2000/svg">
<path d="M47.625 23.9252C48.8625 20.8127 50.8125 17.7377 53.4187 14.7752C54.2438 13.8377 54.3563 12.4877 53.6813 11.4377C53.1562 10.6127 52.2937 10.1627 51.3562 10.1627C51.0937 10.1627 50.8312 10.1814 50.5687 10.2752C45.0562 11.8877 32.175 17.6064 31.8188 35.9439C31.6875 43.0127 36.8625 49.0877 43.5938 49.7814C47.325 50.1564 51.0375 48.9377 53.7938 46.4627C55.1569 45.2264 56.2465 43.7187 56.9924 42.0363C57.7383 40.354 58.1241 38.5342 58.125 36.6939C58.125 30.5064 53.7375 25.0877 47.625 23.9252ZM13.6688 49.7814C17.3813 50.1564 21.0938 48.9377 23.85 46.4627C25.2133 45.2265 26.3029 43.7187 27.0488 42.0364C27.7947 40.354 28.1805 38.5342 28.1813 36.6939C28.1813 30.5064 23.7938 25.0877 17.6813 23.9252C18.9188 20.8127 20.8688 17.7377 23.475 14.7752C24.3 13.8377 24.4125 12.4877 23.7375 11.4377C23.2125 10.6127 22.35 10.1627 21.4125 10.1627C21.15 10.1627 20.8875 10.1814 20.625 10.2752C15.1125 11.8877 2.23125 17.6064 1.875 35.9439V36.2064C1.875 43.1627 6.99375 49.0877 13.6688 49.7814Z" fill="#0066FF"/>
</svg>
