<svg width="40" height="40" viewBox="0 0 40 40" fill="none" xmlns="http://www.w3.org/2000/svg">
<path d="M19.9999 9.30251C14.3437 9.29376 9.74243 13.8938 9.74243 19.56C9.74243 22.2875 10.8124 24.7688 12.5624 26.6C13.7237 27.8163 14.4449 29.385 14.4449 31.0663V32.025C14.4449 32.3565 14.5766 32.6745 14.811 32.9089C15.0455 33.1433 15.3634 33.275 15.6949 33.275H24.3049C24.6365 33.275 24.9544 33.1433 25.1888 32.9089C25.4232 32.6745 25.5549 32.3565 25.5549 32.025V31.0663C25.5549 29.385 26.2749 27.8163 27.4374 26.6C29.2508 24.7053 30.2613 22.1827 30.2574 19.56C30.2574 13.8938 25.6562 9.29251 19.9999 9.30251ZM18.9937 15.5475C18.2666 15.7336 17.6032 16.1127 17.0738 16.6447C16.5444 17.1768 16.1686 17.842 15.9862 18.57C15.9149 18.8596 15.7317 19.1091 15.4768 19.264C15.2219 19.4189 14.9161 19.4664 14.6262 19.3963C14.3365 19.3253 14.0868 19.1421 13.9321 18.8871C13.7774 18.632 13.7303 18.326 13.8012 18.0363C14.075 16.9069 14.6532 15.8743 15.4728 15.0505C16.2923 14.2267 17.322 13.6434 18.4499 13.3638C18.7344 13.3057 19.0303 13.3598 19.2759 13.5148C19.5214 13.6697 19.6977 13.9134 19.7678 14.1952C19.838 14.4769 19.7966 14.7749 19.6524 15.0268C19.5081 15.2788 19.2722 15.4653 18.9937 15.5475Z" fill="#0066FF" fill-opacity="0.3"/>
<path d="M20 5.8275C20.2983 5.8275 20.5845 5.70897 20.7954 5.498C21.0064 5.28702 21.1249 5.00087 21.1249 4.7025V2.5C21.1249 2.20163 21.0064 1.91548 20.7954 1.7045C20.5845 1.49353 20.2983 1.375 20 1.375C19.7016 1.375 19.4154 1.49353 19.2045 1.7045C18.9935 1.91548 18.875 2.20163 18.875 2.5V4.7025C18.875 5.00087 18.9935 5.28702 19.2045 5.498C19.4154 5.70897 19.7016 5.8275 20 5.8275ZM36.0187 16.1362H33.8162C33.5178 16.1362 33.2317 16.2548 33.0207 16.4658C32.8097 16.6767 32.6912 16.9629 32.6912 17.2612C32.6912 17.5596 32.8097 17.8458 33.0207 18.0567C33.2317 18.2677 33.5178 18.3862 33.8162 18.3862H36.0187C36.3171 18.3862 36.6032 18.2677 36.8142 18.0567C37.0252 17.8458 37.1437 17.5596 37.1437 17.2612C37.1437 16.9629 37.0252 16.6767 36.8142 16.4658C36.6032 16.2548 36.3171 16.1362 36.0187 16.1362ZM6.18245 16.1362H3.9812C3.68283 16.1362 3.39668 16.2548 3.18571 16.4658C2.97473 16.6767 2.8562 16.9629 2.8562 17.2612C2.8562 17.5596 2.97473 17.8458 3.18571 18.0567C3.39668 18.2677 3.68283 18.3862 3.9812 18.3862H6.1837C6.48207 18.3861 6.76815 18.2674 6.97901 18.0563C7.18987 17.8452 7.30824 17.559 7.30808 17.2606C7.30791 16.9623 7.18922 16.6762 6.97813 16.4653C6.76703 16.2545 6.48082 16.1361 6.18245 16.1362ZM10.3237 9.17625C10.4279 9.28139 10.552 9.36485 10.6886 9.4218C10.8253 9.47875 10.9719 9.50808 11.12 9.50808C11.268 9.50808 11.4146 9.47875 11.5513 9.4218C11.6879 9.36485 11.812 9.28139 11.9162 9.17625C12.0208 9.07197 12.1038 8.94807 12.1605 8.81164C12.2171 8.67522 12.2462 8.52896 12.2462 8.38125C12.2462 8.23354 12.2171 8.08728 12.1605 7.95086C12.1038 7.81443 12.0208 7.69053 11.9162 7.58625L10.3575 6.0275C10.2539 5.91931 10.1298 5.8329 9.99236 5.77331C9.85496 5.71373 9.70704 5.68218 9.55728 5.68052C9.40753 5.67886 9.25895 5.70711 9.12025 5.76363C8.98156 5.82015 8.85555 5.90379 8.74961 6.00964C8.64367 6.1155 8.55993 6.24145 8.5033 6.3801C8.44668 6.51874 8.4183 6.6673 8.41985 6.81706C8.42139 6.96682 8.45283 7.11476 8.5123 7.25221C8.57178 7.38966 8.6581 7.51385 8.7662 7.6175L10.3237 9.17625ZM29.6425 6.0275L28.0849 7.585C27.9265 7.74193 27.8184 7.9425 27.7744 8.16113C27.7304 8.37976 27.7526 8.60653 27.838 8.81252C27.9234 9.01852 28.0683 9.1944 28.2541 9.31773C28.4399 9.44106 28.6582 9.50626 28.8812 9.505C29.0291 9.50524 29.1756 9.4762 29.3123 9.41957C29.449 9.36293 29.5731 9.27981 29.6775 9.175L31.2349 7.6175C31.6749 7.17875 31.6749 6.46625 31.2349 6.0275C30.7949 5.58875 30.0812 5.58875 29.6425 6.0275Z" fill="#0066FF"/>
<path d="M16.9312 35.375H23.0687C23.367 35.375 23.6532 35.4935 23.8641 35.7045C24.0751 35.9155 24.1937 36.2016 24.1937 36.5C24.1937 36.7984 24.0751 37.0845 23.8641 37.2955C23.6532 37.5065 23.367 37.625 23.0687 37.625H16.9312C16.6328 37.625 16.3466 37.5065 16.1357 37.2955C15.9247 37.0845 15.8062 36.7984 15.8062 36.5C15.8062 36.2016 15.9247 35.9155 16.1357 35.7045C16.3466 35.4935 16.6328 35.375 16.9312 35.375Z" fill="#0066FF"/>
</svg>
