<svg width="40" height="40" viewBox="0 0 40 40" fill="none" xmlns="http://www.w3.org/2000/svg">
<path fill-rule="evenodd" clip-rule="evenodd" d="M22.7787 2.85355C23.0438 2.21615 23.7755 1.91438 24.4128 2.17953C25.0503 2.4447 25.352 3.17636 25.0868 3.81376L23.3535 7.98043C23.0885 8.61785 22.3567 8.9196 21.7193 8.65445C21.082 8.38928 20.7802 7.65761 21.0453 7.02021L22.7787 2.85355ZM28.856 2.82883C29.1347 2.19728 29.8727 1.91133 30.5043 2.19013C31.1358 2.46895 31.4218 3.20693 31.143 3.83848L25.4183 16.8057C28.8943 18.7198 31.2495 22.4183 31.2495 26.667C31.2495 32.8802 26.2127 37.917 19.9995 37.917C13.7862 37.917 8.74947 32.8802 8.74947 26.667C8.74947 22.7102 10.7923 19.2303 13.8808 17.2248L7.21477 3.89268C6.90602 3.2752 7.1563 2.52436 7.77378 2.21563C8.39125 1.90688 9.14208 2.15716 9.45083 2.77465L16.1161 16.1052C17.1005 15.7431 18.1497 15.5148 19.2413 15.4421L13.601 3.88176C13.2983 3.26133 13.5559 2.51295 14.1764 2.21023C14.7968 1.90753 15.5452 2.1651 15.8479 2.78555L22.1068 15.614C22.4458 15.6783 22.7793 15.7577 23.1068 15.8516L28.856 2.82883ZM20.0832 21.5C20.4618 21.216 20.9687 21.1702 21.3922 21.382C21.8157 21.5937 22.0832 22.0265 22.0832 22.5V30.8333C22.0832 31.5237 21.5235 32.0833 20.8332 32.0833C20.1427 32.0833 19.5832 31.5237 19.5832 30.8333V25L18.2498 26C17.6975 26.4142 16.914 26.3023 16.4998 25.75C16.0856 25.1977 16.1975 24.4142 16.7498 24L20.0832 21.5Z" fill="#0066FF" fill-opacity="0.3"/>
<path fill-rule="evenodd" clip-rule="evenodd" d="M20.0832 21.5C20.4619 21.216 20.9687 21.1702 21.3922 21.382C21.8157 21.5937 22.0832 22.0265 22.0832 22.5V30.8333C22.0832 31.5237 21.5236 32.0833 20.8332 32.0833C20.1427 32.0833 19.5832 31.5237 19.5832 30.8333V25L18.2499 26C17.6976 26.4142 16.9141 26.3023 16.4998 25.75C16.0856 25.1977 16.1975 24.4142 16.7499 24L20.0832 21.5Z" fill="#0066FF"/>
</svg>
