<svg width="40" height="40" viewBox="0 0 40 40" fill="none" xmlns="http://www.w3.org/2000/svg">
<g clip-path="url(#clip0_18651_12060)">
<path d="M13.5084 2.0522C13.7049 0.868908 14.731 0 15.9317 0H21.5927C22.7935 0 23.8196 0.868908 24.0161 2.0522L24.4811 4.84886C24.6186 5.66537 25.1644 6.34652 25.8892 6.74823C26.0508 6.83556 26.2102 6.92943 26.3695 7.0255C27.0791 7.4534 27.9414 7.58657 28.7165 7.29621L31.3734 6.30068C31.9179 6.09591 32.5174 6.09104 33.0651 6.28695C33.6128 6.48285 34.0733 6.86681 34.3644 7.37044L37.1938 12.2761C37.4843 12.7797 37.5867 13.3701 37.4827 13.9422C37.3788 14.5143 37.0753 15.0309 36.6262 15.4002L34.4364 17.2057C33.7967 17.7318 33.4802 18.544 33.4977 19.3714C33.5007 19.557 33.5007 19.7426 33.4977 19.9281C33.4802 20.7534 33.7967 21.5655 34.4364 22.0917L36.6283 23.8972C37.554 24.6613 37.7942 25.9821 37.196 27.0191L34.3622 31.9247C34.0715 32.4283 33.6116 32.8123 33.0643 33.0086C32.517 33.2049 31.9179 33.2007 31.3734 32.9967L28.7165 32.0012C27.9414 31.7108 27.0791 31.844 26.3674 32.2719C26.2091 32.3682 26.049 32.4613 25.8871 32.5513C25.1644 32.9508 24.6186 33.632 24.4811 34.4485L24.0161 37.2452C23.8196 38.4306 22.7935 39.2974 21.5927 39.2974H15.9296C14.7288 39.2974 13.7049 38.4285 13.5062 37.2452L13.0412 34.4485C12.9058 33.632 12.36 32.9508 11.6352 32.5491C11.4733 32.4598 11.3132 32.3674 11.1549 32.2719C10.4454 31.844 9.58303 31.7108 8.80581 32.0012L6.14887 32.9967C5.60467 33.2009 5.00568 33.2054 4.45843 33.0095C3.91118 32.8137 3.45113 32.4301 3.16009 31.9269L0.328498 27.0213C0.0380101 26.5176 -0.0643721 25.9272 0.0395679 25.3552C0.143508 24.7831 0.447029 24.2665 0.896126 23.8972L3.08805 22.0917C3.72554 21.5677 4.0421 20.7534 4.02682 19.9281C4.0234 19.7426 4.0234 19.557 4.02682 19.3714C4.0421 18.5418 3.72554 17.7318 3.08805 17.2057L0.896126 15.4002C0.447568 15.031 0.144399 14.5148 0.0404756 13.9432C-0.0634481 13.3716 0.0386021 12.7817 0.328498 12.2782L3.16009 7.37262C3.45086 6.8686 3.91113 6.48419 4.4589 6.28788C5.00666 6.09156 5.60633 6.0961 6.15106 6.30068L8.80581 7.29621C9.58303 7.58657 10.4454 7.4534 11.1549 7.0255C11.3121 6.92943 11.4737 6.83774 11.6352 6.74605C12.36 6.34652 12.9058 5.66537 13.0412 4.84886L13.5084 2.0522Z" fill="#0066FF" fill-opacity="0.3"/>
<path d="M25.3107 19.6489C25.3107 21.386 24.6206 23.0519 23.3923 24.2802C22.1641 25.5084 20.4982 26.1985 18.7611 26.1985C17.0241 26.1985 15.3581 25.5084 14.1299 24.2802C12.9016 23.0519 12.2115 21.386 12.2115 19.6489C12.2115 17.9119 12.9016 16.246 14.1299 15.0177C15.3581 13.7894 17.0241 13.0994 18.7611 13.0994C20.4982 13.0994 22.1641 13.7894 23.3923 15.0177C24.6206 16.246 25.3107 17.9119 25.3107 19.6489Z" fill="#0066FF"/>
</g>
<defs>
<clipPath id="clip0_18651_12060">
<rect width="40" height="40" fill="white"/>
</clipPath>
</defs>
</svg>
