<svg width="40" height="40" viewBox="0 0 40 40" fill="none" xmlns="http://www.w3.org/2000/svg">
<path d="M38.5 19.75C38.5 22.2123 38.015 24.6505 37.0727 26.9253C36.1305 29.2002 34.7493 31.2672 33.0083 33.0083C31.2672 34.7494 29.2002 36.1305 26.9253 37.0727C24.6505 38.015 22.2123 38.5 19.75 38.5C17.2877 38.5 14.8495 38.015 12.5747 37.0727C10.2998 36.1305 8.23285 34.7494 6.49175 33.0083C4.75065 31.2672 3.36953 29.2002 2.42726 26.9253C1.48498 24.6505 1 22.2123 1 19.75C1 14.7772 2.97544 10.0081 6.49175 6.49175C10.0081 2.97544 14.7772 1 19.75 1C24.7228 1 29.4919 2.97544 33.0083 6.49175C36.5246 10.0081 38.5 14.7772 38.5 19.75Z" fill="#212936"/>
<path d="M15 19.9463L18.4018 23.3481L25 16.7499" stroke="#0066FF" stroke-width="2.90286" stroke-linecap="round" stroke-linejoin="round"/>
</svg>
