<svg width="30" height="30" viewBox="0 0 30 30" fill="none" xmlns="http://www.w3.org/2000/svg">
<g clip-path="url(#clip0_4882_22)">
<path d="M21.9853 19.6219C21.724 19.3597 21.4136 19.1516 21.0717 19.0097C20.7298 18.8677 20.3633 18.7947 19.9931 18.7947C19.623 18.7947 19.2564 18.8677 18.9146 19.0097C18.5727 19.1516 18.2622 19.3597 18.0009 19.6219L16.6416 20.9812C15.111 20.0099 13.693 18.8717 12.4134 17.5875C11.1293 16.308 9.99108 14.8899 9.0197 13.3594L10.3791 12C10.6413 11.7387 10.8493 11.4282 10.9913 11.0864C11.1332 10.7445 11.2063 10.378 11.2063 10.0078C11.2063 9.63765 11.1332 9.27112 10.9913 8.92926C10.8493 8.58739 10.6413 8.27691 10.3791 8.01562L7.72595 5.37187C7.46834 5.1088 7.16049 4.90021 6.82067 4.75848C6.48085 4.61676 6.116 4.5448 5.74782 4.54687C5.37702 4.54596 5.00971 4.61839 4.667 4.75997C4.3243 4.90156 4.01298 5.10951 3.75095 5.37187L2.47595 6.6375C1.86823 7.29091 1.41467 8.0722 1.1486 8.92394C0.882532 9.77568 0.810721 10.6762 0.938446 11.5594C1.23845 15.075 3.5447 19.3031 7.09782 22.8656C10.6509 26.4281 14.9259 28.725 18.4416 29.0625C18.7039 29.0765 18.9668 29.0765 19.2291 29.0625C19.9858 29.0943 20.7413 28.9746 21.4513 28.7106C22.1612 28.4466 22.8113 28.0435 23.3634 27.525L24.6291 26.25C24.8914 25.988 25.0994 25.6766 25.241 25.3339C25.3826 24.9912 25.455 24.6239 25.4541 24.2531C25.4561 23.8849 25.3842 23.5201 25.2425 23.1803C25.1007 22.8405 24.8921 22.5326 24.6291 22.275L21.9853 19.6219Z" fill="#0066FF" fill-opacity="0.3"/>
<path d="M24.9375 5.05312C23.6346 3.74528 22.0857 2.70828 20.3802 2.00192C18.6746 1.29555 16.8461 0.933793 15 0.937498C14.7514 0.937498 14.5129 1.03627 14.3371 1.21209C14.1613 1.3879 14.0625 1.62636 14.0625 1.875C14.0625 2.12364 14.1613 2.36209 14.3371 2.53791C14.5129 2.71373 14.7514 2.8125 15 2.8125C16.6092 2.81244 18.2025 3.13106 19.6879 3.74998C21.1733 4.3689 22.5215 5.27586 23.6545 6.41852C24.7876 7.56118 25.6832 8.91691 26.2895 10.4075C26.8959 11.8981 27.2011 13.494 27.1875 15.1031C27.1875 15.3518 27.2863 15.5902 27.4621 15.766C27.6379 15.9419 27.8764 16.0406 28.125 16.0406C28.3736 16.0406 28.6121 15.9419 28.7879 15.766C28.9637 15.5902 29.0625 15.3518 29.0625 15.1031C29.0805 13.2374 28.7247 11.387 28.0163 9.661C27.3078 7.93496 26.261 6.36821 24.9375 5.05312Z" fill="#0066FF"/>
<path d="M19.6041 10.4156C20.1361 10.9445 20.557 11.5744 20.842 12.2683C21.1269 12.9622 21.2702 13.7061 21.2634 14.4562C21.2634 14.7049 21.3622 14.9433 21.538 15.1192C21.7138 15.295 21.9523 15.3937 22.2009 15.3937C22.4496 15.3937 22.688 15.295 22.8638 15.1192C23.0397 14.9433 23.1384 14.7049 23.1384 14.4562C23.1508 13.4635 22.966 12.4781 22.5947 11.5573C22.2233 10.6365 21.6728 9.79864 20.9752 9.09224C20.2775 8.38584 19.4465 7.82499 18.5304 7.44223C17.6143 7.05948 16.6313 6.86242 15.6384 6.8625C15.3898 6.8625 15.1513 6.96127 14.9755 7.13708C14.7997 7.3129 14.7009 7.55136 14.7009 7.8C14.7009 8.04864 14.7997 8.28709 14.9755 8.46291C15.1513 8.63873 15.3898 8.7375 15.6384 8.7375C16.3773 8.74306 17.1077 8.89413 17.7882 9.18207C18.4686 9.47 19.0856 9.88917 19.6041 10.4156Z" fill="#0066FF"/>
</g>
<defs>
<clipPath id="clip0_4882_22">
<rect width="30" height="30" fill="white"/>
</clipPath>
</defs>
</svg>
