<svg width="470" height="196" viewBox="0 0 470 196" fill="none" xmlns="http://www.w3.org/2000/svg">
<path d="M2.29883 153.172V155.172H4.29883H88.5027V188.684V190.684H90.5027H116.692H118.692V188.684V155.172H140.751H142.751V153.172V129.912V127.912H140.751H118.692V6.86553V4.86553H116.692H102.357H100.357H90.6802H88.6802H82.8677H81.7668L81.1779 5.79577L2.60897 129.908L2.29883 130.398V130.978V153.172ZM35.7948 127.912L88.6802 44.1981V127.912H35.7948ZM234.981 193.702H234.99C249.327 193.702 261.713 189.928 272.044 182.303L272.05 182.298C282.358 174.628 290.169 163.602 295.543 149.35L295.544 149.348C300.919 135.036 303.573 117.857 303.573 97.8634C303.573 77.9864 300.889 60.9227 295.452 46.7258C290.078 32.4767 282.267 21.48 271.957 13.8693C261.628 6.1854 249.271 2.37973 234.99 2.37973C220.709 2.37973 208.326 6.15483 197.94 13.7757L197.935 13.7791C187.625 21.3893 179.784 32.3858 174.349 46.6358L174.347 46.6428C168.972 60.8955 166.317 77.9864 166.317 97.8634C166.317 117.799 168.972 134.948 174.346 149.259C179.72 163.57 187.532 174.601 197.847 182.214C208.177 189.839 220.589 193.641 234.981 193.702ZM262.113 148.971L262.11 148.978C255.488 160.467 246.482 165.998 234.99 165.998C227.241 165.998 220.685 163.508 215.21 158.533C209.694 153.461 205.319 145.916 202.191 135.724C199.129 125.493 197.572 112.889 197.572 97.8686C197.631 75.3544 201.136 58.3893 207.868 46.7519C214.554 35.1933 223.563 29.6397 234.99 29.6397C242.601 29.6397 249.096 32.1763 254.58 37.2724L254.587 37.2795L254.595 37.2865C260.164 42.3541 264.539 49.923 267.608 60.1736L267.612 60.1865C270.732 70.3558 272.318 82.8994 272.318 97.8634C272.318 120.438 268.841 137.398 262.113 148.971ZM327.25 153.172V155.172H329.25H413.454V188.684V190.684H415.454H441.643H443.643V188.684V155.172H465.702H467.702V153.172V129.912V127.912H465.702H443.643V6.86553V4.86553H441.643H427.308H425.308H415.631H413.631H407.819H406.718L406.129 5.79577L327.56 129.908L327.25 130.398V130.978V153.172ZM360.746 127.912L413.631 44.198V127.912H360.746Z" stroke="#0066FF" stroke-width="4"/>
</svg>
