<svg width="40" height="40" viewBox="0 0 40 40" fill="none" xmlns="http://www.w3.org/2000/svg">
<path d="M3.75002 22.9H11.25C11.7195 22.9 12.1 23.2806 12.1 23.75V36.25C12.1 36.7194 11.7195 37.1 11.25 37.1H3.75002C3.28058 37.1 2.90002 36.7194 2.90002 36.25V23.75C2.90002 23.2806 3.28058 22.9 3.75002 22.9Z" fill="#0066FF" fill-opacity="0.3"/>
<path d="M16.2499 12.9H23.7499C24.2193 12.9 24.5999 13.2806 24.5999 13.75V36.25C24.5999 36.7195 24.2193 37.1 23.7499 37.1H16.2499C15.7805 37.1 15.3999 36.7195 15.3999 36.25V13.75C15.3999 13.2806 15.7805 12.9 16.2499 12.9Z" fill="#0066FF" fill-opacity="0.3"/>
<path d="M27.4499 2.90002H34.9499C35.4193 2.90002 35.7999 3.28058 35.7999 3.75002V36.25C35.7999 36.7195 35.4193 37.1 34.9499 37.1H27.4499C26.9804 37.1 26.5999 36.7195 26.5999 36.25V3.75002C26.5999 3.28058 26.9804 2.90002 27.4499 2.90002Z" fill="#0066FF"/>
</svg>
