<svg width="26" height="26" viewBox="0 0 26 26" fill="none" xmlns="http://www.w3.org/2000/svg">
<mask id="mask0_4889_26" style="mask-type:luminance" maskUnits="userSpaceOnUse" x="0" y="0" width="26" height="26">
<path d="M25.5852 0.572357H0.585205V25.5724H25.5852V0.572357Z" fill="white"/>
</mask>
<g mask="url(#mask0_4889_26)">
<path d="M22.4602 13.0723V8.89522C22.4596 8.53184 22.363 8.17496 22.18 7.86084C21.9971 7.54671 21.7343 7.28659 21.4186 7.10672L14.1268 2.93172C13.8095 2.75084 13.4505 2.65572 13.0852 2.65572C12.72 2.65572 12.361 2.75084 12.0436 2.93172L4.75183 7.10672C4.10708 7.47647 3.71021 8.15884 3.71021 8.89634V17.2483C3.71021 17.987 4.10708 18.6682 4.75183 19.037L12.0436 23.212C12.6893 23.5807 13.4811 23.5807 14.1268 23.212" stroke="#0066FF" stroke-width="1.24681" stroke-linecap="round" stroke-linejoin="round"/>
<path d="M13.0852 23.489V13.0724" stroke="#0066FF" stroke-width="1.24681" stroke-linecap="round" stroke-linejoin="round"/>
<path d="M13.0852 13.0724L22.179 7.8224" stroke="#0066FF" stroke-width="1.24681" stroke-linecap="round" stroke-linejoin="round"/>
<path d="M3.9917 7.8224L13.0855 13.0724" stroke="#0066FF" stroke-width="1.24681" stroke-linecap="round" stroke-linejoin="round"/>
<path d="M20.3773 24.01C20.5912 23.1259 21.0447 22.3179 21.6878 21.6746C22.3311 21.0315 23.1391 20.578 24.0232 20.3641C23.1391 20.1503 22.3311 19.6969 21.6878 19.0536C21.0447 18.4105 20.5912 17.6024 20.3773 16.7183C20.1634 17.6024 19.7101 18.4105 19.0668 19.0536C18.4237 19.6969 17.6156 20.1503 16.7314 20.3641C17.6156 20.578 18.4237 21.0315 19.0668 21.6746C19.7101 22.3179 20.1634 23.1259 20.3773 24.01Z" stroke="#0066FF" stroke-width="1.24681" stroke-linecap="round" stroke-linejoin="round"/>
</g>
</svg>
