<svg width="50" height="50" viewBox="0 0 50 50" fill="none" xmlns="http://www.w3.org/2000/svg">
<path fill-rule="evenodd" clip-rule="evenodd" d="M2.5 5.38259C2.5 3.79058 3.80464 2.5 5.41419 2.5H10.4909C11.6364 2.5 12.7466 2.89267 13.6323 3.61118L15.1767 4.8639L15.2153 4.89874C15.2509 4.88685 15.2866 4.87523 15.3223 4.8639C18.1085 3.98116 21.4889 3.81328 24.9392 3.81328C28.3894 3.81328 31.7698 3.98116 34.556 4.8639C34.5918 4.87523 34.6274 4.88685 34.6631 4.89874L34.7017 4.8639L36.246 3.61118C37.1318 2.89267 38.2419 2.5 39.3874 2.5H44.4642C46.0737 2.5 47.3783 3.79058 47.3783 5.38259V7.16457C47.3783 8.54333 46.7913 9.85825 45.7609 10.7868L44.515 11.9098C43.9068 12.4579 43.1768 12.8568 42.3839 13.0743L42.0892 13.1552C43.2436 15.8799 43.8814 18.7924 43.8814 21.1485C43.8814 30.6261 37.953 34.7193 32.7293 38.326C28.6157 41.1662 24.9392 43.7047 24.9392 48.3333C24.9392 43.7047 21.2627 41.1662 17.149 38.326C11.9254 34.7193 5.99697 30.6261 5.99697 21.1485C5.99697 18.7924 6.63473 15.8799 7.78916 13.1552L7.49445 13.0743C6.70153 12.8568 5.97153 12.4579 5.36332 11.9098L4.11746 10.7868C3.08712 9.85825 2.5 8.54333 2.5 7.16457V5.38259ZM28.7277 28.8968C28.7277 29.3497 28.528 29.7838 28.1728 30.1041C27.8176 30.4242 27.3358 30.6041 26.8333 30.6041C26.3997 30.6041 25.9812 30.4699 25.6464 30.2273C26.2163 31.7363 27.6748 33.1662 29.8933 30.8667C31.8518 28.7301 29.8063 24.2237 27.8134 21.5495C27.1492 20.6582 26.0587 20.2292 24.9392 20.2292C23.8197 20.2292 22.7292 20.6582 22.065 21.5495C20.0722 24.2237 18.0266 28.7301 19.9851 30.8667C22.2035 33.1662 23.662 31.7363 24.232 30.2273C23.8972 30.4699 23.4787 30.6041 23.045 30.6041C22.5426 30.6041 22.0608 30.4242 21.7055 30.1041C21.3503 29.7838 21.1508 29.3497 21.1508 28.8968H28.7277ZM17.6853 15.5569H12.4083L16.567 18.8508C17.4823 19.5756 18.8198 19.3439 19.3862 18.3625C20.1012 17.1234 19.1515 15.5569 17.6853 15.5569ZM32.1931 15.5569H37.4701L33.3113 18.8508C32.3962 19.5756 31.0585 19.3439 30.4922 18.3625C29.7772 17.1234 30.7269 15.5569 32.1931 15.5569Z" fill="#72B800"/>
</svg>
