<svg width="159" height="32" viewBox="0 0 159 32" fill="none" xmlns="http://www.w3.org/2000/svg">
<g clip-path="url(#clip0_18651_11666)">
<path fill-rule="evenodd" clip-rule="evenodd" d="M20.6332 9.51049C19.3497 8.65289 17.8407 8.19514 16.297 8.19514V0.390259C19.3843 0.390259 22.4023 1.30576 24.9693 3.02098C27.5363 4.73619 29.5371 7.17411 30.7186 10.0264C31.9 12.8787 32.2091 16.0173 31.6068 19.0453C31.0045 22.0733 29.5179 24.8547 27.3347 27.0378C25.1517 29.2209 22.3703 30.7075 19.3423 31.3098C16.3143 31.9121 13.1757 31.603 10.3234 30.4216C7.4711 29.2401 5.03319 27.2394 3.31798 24.6723C1.60275 22.1053 0.687256 19.0873 0.687256 16H8.49213C8.49213 17.5437 8.94989 19.0527 9.80749 20.3362C10.6651 21.6197 11.8841 22.62 13.3102 23.2108C14.7363 23.8015 16.3057 23.9561 17.8197 23.6549C19.3337 23.3538 20.7243 22.6104 21.8159 21.5189C22.9074 20.4273 23.6508 19.0367 23.9519 17.5227C24.2531 16.0087 24.0985 14.4394 23.5078 13.0132C22.917 11.5871 21.9167 10.3681 20.6332 9.51049Z" fill="#707070"/>
<path fill-rule="evenodd" clip-rule="evenodd" d="M8.49213 0.390263C8.49213 1.41521 8.29026 2.43013 7.89802 3.37706C7.50579 4.32399 6.93089 5.18439 6.20614 5.90915C5.48139 6.6339 4.62099 7.2088 3.67405 7.60103C2.72712 7.99326 1.7122 8.19514 0.687256 8.19514L0.687256 16C2.73716 16 4.76699 15.5963 6.66085 14.8118C8.55472 14.0273 10.2755 12.8775 11.725 11.428C13.1745 9.97855 14.3243 8.25774 15.1088 6.36386C15.8933 4.46999 16.297 2.44016 16.297 0.390259L8.49213 0.390263Z" fill="#707070"/>
<path d="M98.7313 11.6703H94.9444V23.6994H98.7313V11.6703Z" fill="#707070"/>
<path d="M95.3659 9.41787C95.7616 9.81389 96.2564 10.0119 96.8504 10.0119C97.4443 10.0119 97.9314 9.81389 98.3107 9.41787C98.6908 9.00539 98.8804 8.51032 98.8804 7.9328C98.8804 7.33879 98.6908 6.84374 98.3107 6.44774C97.9314 6.0517 97.4443 5.8537 96.8504 5.8537C96.2564 5.8537 95.7616 6.0517 95.3659 6.44774C94.9858 6.84374 94.7961 7.33879 94.7961 7.9328C94.7961 8.51032 94.9858 9.00539 95.3659 9.41787Z" fill="#707070"/>
<path fill-rule="evenodd" clip-rule="evenodd" d="M59.2452 23.9716C58.0077 23.9716 56.8857 23.6994 55.8791 23.1548C54.889 22.5938 54.1053 21.8348 53.5277 20.8777C52.9502 19.9206 52.6614 18.8481 52.6614 17.66C52.6614 16.472 52.9502 15.4077 53.5277 14.4671C54.1053 13.5266 54.889 12.784 55.8791 12.2395C56.8691 11.6785 57.9912 11.3979 59.2452 11.3979C60.4993 11.3979 61.6214 11.6703 62.6114 12.2147C63.6015 12.7593 64.3853 13.5101 64.9628 14.4671C65.5403 15.4077 65.8291 16.472 65.8291 17.66C65.8291 18.8481 65.5403 19.9206 64.9628 20.8777C64.3853 21.8348 63.6015 22.5938 62.6114 23.1548C61.6214 23.6994 60.4993 23.9716 59.2452 23.9716ZM59.2452 20.5312C59.7898 20.5312 60.2683 20.4157 60.6809 20.1847C61.0934 19.9372 61.4069 19.5989 61.6214 19.1699C61.8524 18.7244 61.9679 18.2211 61.9679 17.66C61.9679 17.099 61.8524 16.6122 61.6214 16.1997C61.3903 15.7707 61.0686 15.4407 60.656 15.2097C60.26 14.9621 59.7898 14.8384 59.2452 14.8384C58.7172 14.8384 58.247 14.9621 57.8344 15.2097C57.4219 15.4407 57.1001 15.7707 56.8691 16.1997C56.6381 16.6288 56.5227 17.1238 56.5227 17.6848C56.5227 18.2293 56.6381 18.7244 56.8691 19.1699C57.1001 19.5989 57.4219 19.9372 57.8344 20.1847C58.247 20.4157 58.7172 20.5312 59.2452 20.5312Z" fill="#707070"/>
<path fill-rule="evenodd" clip-rule="evenodd" d="M68.8283 28.4022C69.8348 28.8641 70.9981 29.0952 72.3182 29.0952C73.6053 29.0952 74.7521 28.8394 75.7586 28.3279C76.7652 27.8163 77.5572 27.1069 78.1347 26.1993C78.7122 25.2918 79.0014 24.2192 79.0014 22.9816V11.6703H75.2883V12.4785C75.0122 12.2461 74.6986 12.0509 74.3478 11.8931C73.7042 11.5795 72.9699 11.4227 72.145 11.4227C71.0394 11.4227 70.0576 11.6868 69.1996 12.2148C68.3414 12.7263 67.665 13.4358 67.1699 14.3434C66.6748 15.2345 66.4274 16.241 66.4274 17.3631C66.4274 18.4687 66.6748 19.4752 67.1699 20.3827C67.665 21.2903 68.3414 22.0081 69.1996 22.5361C70.0576 23.0641 71.0394 23.3281 72.145 23.3281C72.9535 23.3281 73.6878 23.1714 74.3478 22.8579C74.6675 22.706 74.9563 22.527 75.2141 22.3209V23.0806C75.2141 23.9222 74.9419 24.5739 74.3973 25.036C73.8693 25.498 73.135 25.729 72.1945 25.729C71.4354 25.729 70.7836 25.597 70.2391 25.333C69.7111 25.069 69.2325 24.6812 68.8035 24.1697L66.4769 26.4963C67.0544 27.3213 67.8382 27.9567 68.8283 28.4022ZM74.224 19.6154C73.8445 19.8465 73.3908 19.962 72.8627 19.962C72.3347 19.962 71.8727 19.8465 71.4766 19.6154C71.0971 19.3844 70.8001 19.0709 70.5856 18.6749C70.3711 18.2624 70.2638 17.8251 70.2638 17.3631C70.2638 16.868 70.3711 16.4225 70.5856 16.0265C70.8001 15.6305 71.1054 15.317 71.5014 15.0859C71.8974 14.8549 72.3512 14.7394 72.8627 14.7394C73.3908 14.7394 73.8445 14.8549 74.224 15.0859C74.6201 15.317 74.917 15.6305 75.1151 16.0265C75.3296 16.4225 75.4368 16.868 75.4368 17.3631C75.4368 17.8581 75.3296 18.3036 75.1151 18.6996C74.917 19.0792 74.6201 19.3844 74.224 19.6154Z" fill="#707070"/>
<path fill-rule="evenodd" clip-rule="evenodd" d="M86.9709 23.9716C85.7331 23.9716 84.6107 23.6994 83.6047 23.1548C82.6142 22.5938 81.8306 21.8348 81.2531 20.8777C80.6755 19.9206 80.3867 18.8481 80.3867 17.66C80.3867 16.472 80.6755 15.4077 81.2531 14.4671C81.8306 13.5266 82.6142 12.784 83.6047 12.2395C84.5943 11.6785 85.7167 11.3979 86.9709 11.3979C88.2244 11.3979 89.3467 11.6703 90.3364 12.2147C91.3268 12.7593 92.1104 13.5101 92.688 14.4671C93.2655 15.4077 93.5543 16.472 93.5543 17.66C93.5543 18.8481 93.2655 19.9206 92.688 20.8777C92.1104 21.8348 91.3268 22.5938 90.3364 23.1548C89.3467 23.6994 88.2244 23.9716 86.9709 23.9716ZM86.9709 20.5312C87.5149 20.5312 87.9934 20.4157 88.4062 20.1847C88.8183 19.9372 89.1321 19.5989 89.3467 19.1699C89.5777 18.7244 89.6933 18.2211 89.6933 17.66C89.6933 17.099 89.5777 16.6122 89.3467 16.1997C89.1157 15.7707 88.7941 15.4407 88.3813 15.2097C87.9856 14.9621 87.5149 14.8384 86.9709 14.8384C86.4425 14.8384 85.9719 14.9621 85.5598 15.2097C85.1469 15.4407 84.8254 15.7707 84.5943 16.1997C84.3633 16.6288 84.2478 17.1238 84.2478 17.6848C84.2478 18.2293 84.3633 18.7244 84.5943 19.1699C84.8254 19.5989 85.1469 19.9372 85.5598 20.1847C85.9719 20.4157 86.4425 20.5312 86.9709 20.5312Z" fill="#707070"/>
<path fill-rule="evenodd" clip-rule="evenodd" d="M107.833 23.9469C107.026 23.9469 106.283 23.7902 105.606 23.4767C105.25 23.3117 104.928 23.1147 104.641 22.8857V28.7734H100.903V11.6703H104.69V12.5005C104.965 12.2758 105.27 12.0815 105.606 11.9178C106.283 11.5877 107.026 11.4227 107.833 11.4227C108.972 11.4227 109.979 11.695 110.853 12.2396C111.744 12.7841 112.437 13.5266 112.932 14.4672C113.444 15.4077 113.7 16.4803 113.7 17.6848C113.7 18.8894 113.444 19.962 112.932 20.9025C112.437 21.8431 111.744 22.5856 110.853 23.1301C109.979 23.6747 108.972 23.9469 107.833 23.9469ZM107.141 20.5313C107.685 20.5313 108.156 20.4075 108.551 20.16C108.964 19.9125 109.286 19.5741 109.517 19.1452C109.748 18.7162 109.863 18.2294 109.863 17.6848C109.863 17.1238 109.748 16.6288 109.517 16.1998C109.286 15.7707 108.964 15.4408 108.551 15.2097C108.156 14.9622 107.694 14.8385 107.165 14.8385C106.638 14.8385 106.167 14.9622 105.755 15.2097C105.358 15.4408 105.045 15.7707 104.814 16.1998C104.583 16.6288 104.468 17.1238 104.468 17.6848C104.468 18.2294 104.575 18.7162 104.789 19.1452C105.021 19.5741 105.342 19.9125 105.755 20.16C106.167 20.4075 106.629 20.5313 107.141 20.5313Z" fill="#707070"/>
<path d="M117.406 23.7241C118.099 23.9057 118.8 23.9964 119.51 23.9964C121.011 23.9964 122.199 23.6499 123.074 22.9568C123.965 22.2638 124.41 21.3315 124.41 20.1599C124.41 19.4009 124.271 18.7903 123.99 18.3284C123.709 17.8499 123.346 17.4703 122.901 17.1898C122.455 16.9093 121.984 16.6865 121.49 16.5215C120.995 16.3565 120.524 16.2162 120.079 16.1007C119.634 15.9852 119.271 15.8532 118.99 15.7047C118.71 15.5562 118.569 15.3582 118.569 15.1107C118.569 14.8796 118.677 14.7064 118.891 14.5909C119.105 14.4589 119.427 14.3929 119.856 14.3929C120.302 14.3929 120.755 14.4836 121.217 14.6652C121.696 14.8466 122.125 15.1602 122.504 15.6057L124.658 13.4276C124.114 12.7345 123.404 12.2147 122.529 11.8683C121.671 11.5053 120.731 11.3237 119.708 11.3237C118.734 11.3237 117.885 11.4887 117.159 11.8187C116.432 12.1488 115.871 12.6026 115.475 13.18C115.079 13.7411 114.881 14.4094 114.881 15.185C114.881 15.911 115.022 16.5133 115.302 16.9918C115.582 17.4538 115.946 17.8168 116.391 18.0808C116.836 18.3448 117.307 18.5511 117.802 18.6996C118.297 18.8481 118.767 18.9884 119.213 19.1204C119.658 19.2359 120.022 19.3762 120.302 19.5412C120.599 19.6897 120.747 19.9125 120.747 20.2094C120.747 20.4405 120.623 20.6219 120.376 20.754C120.145 20.886 119.807 20.952 119.361 20.952C118.717 20.952 118.123 20.8365 117.579 20.6054C117.035 20.358 116.564 20.0197 116.168 19.5907L114.015 21.7688C114.428 22.2143 114.923 22.6104 115.5 22.9568C116.094 23.2868 116.729 23.5426 117.406 23.7241Z" fill="#707070"/>
<path d="M131.316 23.9716C130.211 23.9716 129.229 23.7489 128.371 23.3034C127.529 22.8413 126.869 22.2143 126.391 21.4222C125.912 20.6137 125.673 19.6897 125.673 18.6501V11.6703H129.46V18.6006C129.46 19.0131 129.525 19.3679 129.658 19.6649C129.806 19.962 130.021 20.193 130.301 20.358C130.582 20.523 130.92 20.6055 131.316 20.6055C131.877 20.6055 132.323 20.4322 132.653 20.0857C132.983 19.7227 133.148 19.2277 133.148 18.6006V11.6703H136.935V18.6254C136.935 19.6814 136.696 20.6137 136.217 21.4222C135.738 22.2143 135.079 22.8413 134.236 23.3034C133.395 23.7489 132.422 23.9716 131.316 23.9716Z" fill="#707070"/>
<path d="M142.604 11.6703H138.817V23.6994H142.604V16.67C142.604 16.2575 142.687 15.911 142.852 15.6305C143.033 15.35 143.273 15.1354 143.57 14.987C143.867 14.8219 144.205 14.7394 144.584 14.7394C145.129 14.7394 145.582 14.9127 145.945 15.2592C146.325 15.5892 146.515 16.0595 146.515 16.67V23.6994H150.302V16.67C150.302 16.2575 150.385 15.911 150.549 15.6305C150.731 15.35 150.97 15.1354 151.268 14.987C151.564 14.8219 151.903 14.7394 152.282 14.7394C152.827 14.7394 153.28 14.9127 153.643 15.2592C154.023 15.5892 154.212 16.0595 154.212 16.67V23.6994H158V16.2493C158 15.2427 157.785 14.3847 157.356 13.6751C156.943 12.9491 156.374 12.3963 155.648 12.0168C154.939 11.6207 154.122 11.4227 153.198 11.4227C152.257 11.4227 151.407 11.629 150.649 12.0416C150.155 12.3044 149.725 12.6436 149.355 13.0591C149.011 12.6244 148.593 12.2688 148.099 11.992C147.439 11.6125 146.688 11.4227 145.847 11.4227C144.956 11.4227 144.156 11.6125 143.446 11.992C143.137 12.1499 142.857 12.339 142.604 12.5594V11.6703Z" fill="#707070"/>
</g>
<defs>
<clipPath id="clip0_18651_11666">
<rect width="157.659" height="31.2195" fill="white" transform="translate(0.687256 0.390259)"/>
</clipPath>
</defs>
</svg>
