<svg width="146" height="32" viewBox="0 0 146 32" fill="none" xmlns="http://www.w3.org/2000/svg">
<g clip-path="url(#clip0_18651_11694)">
<path fill-rule="evenodd" clip-rule="evenodd" d="M46.5369 2.12969C46.5369 1.04529 47.4255 0.166199 48.5219 0.166199H51.9799C52.7602 0.166199 53.5164 0.433671 54.1197 0.923085L55.1716 1.77638L55.1979 1.80011C55.2222 1.79201 55.2465 1.7841 55.2708 1.77638C57.1687 1.1751 59.4713 1.06075 61.8214 1.06075C64.1715 1.06075 66.4741 1.1751 68.3719 1.77638C68.3963 1.7841 68.4206 1.79201 68.4448 1.80011L68.4711 1.77638L69.5231 0.923085C70.1264 0.433671 70.8826 0.166199 71.6629 0.166199H75.1209C76.2173 0.166199 77.1059 1.04529 77.1059 2.12969V3.34349C77.1059 4.28261 76.706 5.17829 76.0042 5.8108L75.1556 6.57567C74.7413 6.94907 74.244 7.22082 73.7039 7.36897L73.5032 7.42404C74.2895 9.27999 74.7239 11.2638 74.7239 12.8687C74.7239 19.3244 70.6858 22.1125 67.1277 24.5692C64.3257 26.5039 61.8214 28.2329 61.8214 31.3857C61.8214 28.2329 59.3171 26.5039 56.5151 24.5692C52.957 22.1125 48.9188 19.3244 48.9188 12.8687C48.9188 11.2638 49.3533 9.27999 50.1396 7.42404L49.9389 7.36897C49.3988 7.22082 48.9015 6.94907 48.4872 6.57567L47.6386 5.8108C46.9368 5.17829 46.5369 4.28261 46.5369 3.34349V2.12969ZM64.4019 18.1465C64.4019 18.4549 64.266 18.7507 64.024 18.9688C63.7821 19.1869 63.4539 19.3094 63.1116 19.3094C62.8162 19.3094 62.5312 19.218 62.3031 19.0527C62.6913 20.0806 63.6848 21.0546 65.1959 19.4883C66.5299 18.0329 65.1366 14.9633 63.7792 13.1418C63.3267 12.5347 62.5839 12.2425 61.8214 12.2425C61.0589 12.2425 60.3161 12.5347 59.8636 13.1418C58.5062 14.9633 57.1129 18.0329 58.4469 19.4883C59.958 21.0546 60.9515 20.0806 61.3397 19.0527C61.1116 19.218 60.8266 19.3094 60.5312 19.3094C60.1889 19.3094 59.8607 19.1869 59.6188 18.9688C59.3768 18.7507 59.2409 18.4549 59.2409 18.1465H64.4019ZM56.8804 9.05997H53.2859L56.1187 11.3036C56.7421 11.7973 57.6532 11.6395 58.0389 10.971C58.5259 10.127 57.8791 9.05997 56.8804 9.05997ZM66.7624 9.05997H70.3569L67.5241 11.3036C66.9007 11.7973 65.9896 11.6395 65.6039 10.971C65.1168 10.127 65.7637 9.05997 66.7624 9.05997Z" fill="#707070"/>
<path d="M81.3879 22.28H84.5723V10.2683H81.3879V22.28ZM81.3879 8.39517H84.5723V5.53857H81.3879V8.39517Z" fill="#707070"/>
<path d="M86.6241 26.2137H89.8085V20.922H89.8554C90.5344 21.9523 91.6349 22.6313 93.3207 22.6313C96.4115 22.6313 98.5188 20.1727 98.5188 16.2859C98.5188 12.5396 96.4817 9.94055 93.2973 9.94055C91.6583 9.94055 90.5344 10.7132 89.7617 11.7669H89.6915V10.2684H86.6241V26.2137ZM92.6417 19.9854C90.7451 19.9854 89.7383 18.5571 89.7383 16.3796C89.7383 14.2254 90.5344 12.5162 92.5246 12.5162C94.4915 12.5162 95.2876 14.1084 95.2876 16.3796C95.2876 18.6508 94.2573 19.9854 92.6417 19.9854Z" fill="#707070"/>
<path d="M104.871 22.6313C107.868 22.6313 109.929 21.1796 109.929 18.7679C109.929 15.9581 107.704 15.3962 105.691 14.9747C103.981 14.6235 102.389 14.5298 102.389 13.4996C102.389 12.6332 103.209 12.1649 104.45 12.1649C105.808 12.1649 106.627 12.6332 106.768 13.921H109.648C109.414 11.5093 107.658 9.94055 104.497 9.94055C101.757 9.94055 99.6029 11.1815 99.6029 13.7806C99.6029 16.403 101.71 16.9884 103.864 17.4098C105.503 17.7376 107.025 17.8547 107.025 19.002C107.025 19.8449 106.229 20.3835 104.824 20.3835C103.396 20.3835 102.413 19.7747 102.202 18.3932H99.2517C99.439 20.9454 101.382 22.6313 104.871 22.6313Z" fill="#707070"/>
<path d="M122.019 22.28V10.2683H118.835V17.199C118.835 18.7912 117.922 19.9151 116.423 19.9151C115.065 19.9151 114.433 19.1425 114.433 17.7376V10.2683H111.272V18.2761C111.272 20.8986 112.771 22.6078 115.44 22.6078C117.126 22.6078 118.062 21.9756 118.882 20.8751H118.952V22.28H122.019Z" fill="#707070"/>
<path d="M124.079 22.2801H127.263V15.3025C127.263 13.7103 128.13 12.6801 129.418 12.6801C130.588 12.6801 131.267 13.3825 131.267 14.7406V22.2801H134.452V15.3025C134.452 13.7103 135.271 12.6801 136.606 12.6801C137.777 12.6801 138.456 13.3825 138.456 14.7406V22.2801H141.64V14.202C141.64 11.5796 140.212 9.94055 137.683 9.94055C136.161 9.94055 134.897 10.7366 134.077 12.0479H134.03C133.445 10.7835 132.227 9.94055 130.705 9.94055C129.043 9.94055 127.872 10.7835 127.217 11.884H127.146V10.2684H124.079V22.2801Z" fill="#707070"/>
<path d="M0.993042 22.28H4.17743V5.53857H0.993042V22.28Z" fill="#707070"/>
<path d="M11.9638 22.6313C15.6867 22.6313 18.2389 19.8684 18.2389 16.2859C18.2389 12.7035 15.6867 9.94055 11.9638 9.94055C8.24079 9.94055 5.6886 12.7035 5.6886 16.2859C5.6886 19.8684 8.24079 22.6313 11.9638 22.6313ZM11.9638 20.1962C9.99693 20.1962 8.91986 18.6274 8.91986 16.2859C8.91986 13.9445 9.99693 12.3523 11.9638 12.3523C13.9072 12.3523 15.0077 13.9445 15.0077 16.2859C15.0077 18.6274 13.9072 20.1962 11.9638 20.1962Z" fill="#707070"/>
<path d="M25.0107 26.3776C26.7903 26.3776 28.3356 25.9562 29.3424 25.0196C30.2322 24.2001 30.7707 23.0527 30.7707 21.3669V10.2684H27.7034V11.5327H27.6566C26.9307 10.5259 25.8303 9.94055 24.3317 9.94055C21.2878 9.94055 19.1337 12.2352 19.1337 15.8176C19.1337 19.4469 21.7561 21.5542 24.4254 21.5542C25.9473 21.5542 26.8605 20.9454 27.5629 20.1493H27.6332V21.4606C27.6332 23.0996 26.7668 23.9659 24.9639 23.9659C23.4888 23.9659 22.8098 23.3806 22.5522 22.6313H19.3912C19.719 24.9727 21.7327 26.3776 25.0107 26.3776ZM24.9639 19.002C23.3249 19.002 22.2478 17.8079 22.2478 15.7708C22.2478 13.7571 23.3249 12.4927 24.9405 12.4927C26.8605 12.4927 27.7971 13.9913 27.7971 15.7474C27.7971 17.5269 26.9776 19.002 24.9639 19.002Z" fill="#707070"/>
<path d="M38.511 22.6313C42.2339 22.6313 44.7861 19.8684 44.7861 16.2859C44.7861 12.7035 42.2339 9.94055 38.511 9.94055C34.788 9.94055 32.2358 12.7035 32.2358 16.2859C32.2358 19.8684 34.788 22.6313 38.511 22.6313ZM38.511 20.1962C36.5441 20.1962 35.4671 18.6274 35.4671 16.2859C35.4671 13.9445 36.5441 12.3523 38.511 12.3523C40.4544 12.3523 41.5549 13.9445 41.5549 16.2859C41.5549 18.6274 40.4544 20.1962 38.511 20.1962Z" fill="#707070"/>
<path d="M141.496 7.64584C141.496 7.10702 141.933 6.67023 142.472 6.67023H144.423C144.962 6.67023 145.399 7.10702 145.399 7.64584C145.399 8.18462 144.962 8.62145 144.423 8.62145H142.472C141.933 8.62145 141.496 8.18462 141.496 7.64584Z" fill="#707070"/>
</g>
<defs>
<clipPath id="clip0_18651_11694">
<rect width="145.171" height="32" fill="white" transform="translate(0.459106)"/>
</clipPath>
</defs>
</svg>
