<svg width="173" height="32" viewBox="0 0 173 32" fill="none" xmlns="http://www.w3.org/2000/svg">
<g clip-path="url(#clip0_18651_11678)">
<path d="M15.9555 31.6098C24.5768 31.6098 31.5653 24.6213 31.5653 16V5.07319C31.5653 3.8312 31.0719 2.64008 30.1937 1.76186C29.3155 0.883637 28.1243 0.390259 26.8824 0.390259L16.736 0.390259V7.23826C16.736 8.8008 16.8312 10.4195 17.6507 11.7495C18.2374 12.7026 19.0223 13.5184 19.952 14.1415C20.8817 14.7646 21.9346 15.1804 23.0392 15.3608L23.3382 15.4092C23.4614 15.4513 23.5684 15.5309 23.6441 15.6369C23.7199 15.7428 23.7606 15.8698 23.7606 16C23.7606 16.1303 23.7199 16.2572 23.6441 16.3632C23.5684 16.4691 23.4614 16.5487 23.3382 16.5908L23.0392 16.6392C21.4253 16.9029 19.935 17.6668 18.7786 18.8231C17.6223 19.9795 16.8584 21.4698 16.5947 23.0837L16.5464 23.3827C16.5042 23.5059 16.4246 23.6129 16.3187 23.6886C16.2127 23.7644 16.0858 23.8051 15.9555 23.8051C15.8253 23.8051 15.6983 23.7644 15.5924 23.6886C15.4864 23.6129 15.4068 23.5059 15.3647 23.3827L15.3163 23.0837C15.1359 21.9791 14.7201 20.9263 14.097 19.9965C13.4739 19.0668 12.6581 18.282 11.705 17.6952C10.375 16.8757 8.75631 16.7805 7.19377 16.7805H0.364502C0.772697 25.0388 7.5965 31.6098 15.9555 31.6098Z" fill="#656565"/>
<path d="M0.345764 15.2195H7.19376C8.7563 15.2195 10.375 15.1243 11.705 14.3048C12.7446 13.6642 13.6198 12.7891 14.2603 11.7495C15.0798 10.4195 15.175 8.8008 15.175 7.23826V0.390259H5.02869C3.7867 0.390259 2.59558 0.883637 1.71736 1.76186C0.839142 2.64008 0.345764 3.8312 0.345764 5.07319L0.345764 15.2195ZM36.6033 1.95123C36.6033 2.36523 36.4389 2.76227 36.1461 3.05501C35.8534 3.34775 35.4563 3.51221 35.0424 3.51221C34.6284 3.51221 34.2313 3.34775 33.9386 3.05501C33.6458 2.76227 33.4814 2.36523 33.4814 1.95123C33.4814 1.53724 33.6458 1.1402 33.9386 0.847458C34.2313 0.554718 34.6284 0.390259 35.0424 0.390259C35.4563 0.390259 35.8534 0.554718 36.1461 0.847458C36.4389 1.1402 36.6033 1.53724 36.6033 1.95123ZM165.584 9.83728C169.947 9.83728 172.053 12.8851 172.053 16.4152V23.0455H167.486V17.202C167.486 15.602 166.903 14.2814 165.228 14.2814C163.554 14.2814 162.996 15.602 162.996 17.202V23.0447H158.43V17.202C158.43 15.602 157.872 14.2814 156.197 14.2814C154.523 14.2814 153.939 15.602 153.939 17.202V23.0447H149.373V16.4145C149.373 12.8843 151.478 9.8365 155.842 9.8365C158.227 9.8365 159.952 10.7762 160.738 12.3255C161.575 10.7762 163.402 9.83572 165.584 9.83572V9.83728ZM141.167 18.9815C142.638 18.9815 143.273 17.6351 143.273 16.0344V10.3446H147.838V16.5932C147.838 20.327 145.657 23.4264 141.167 23.4264C136.676 23.4264 134.494 20.3278 134.494 16.5932V10.3446H139.061V16.0344C139.061 17.6344 139.695 18.9815 141.167 18.9815ZM127.78 23.4513C124.913 23.4513 123.061 22.4609 121.97 20.5307L125.268 18.6763C125.725 19.4888 126.409 19.8954 127.551 19.8954C128.49 19.8954 128.921 19.5653 128.921 19.1586C128.921 17.6094 122.224 19.1844 122.224 14.2572C122.224 11.8689 124.253 9.93875 127.703 9.93875C130.722 9.93875 132.372 11.4115 133.108 12.8344L129.809 14.7138C129.531 13.952 128.667 13.4946 127.805 13.4946C127.145 13.4946 126.79 13.7741 126.79 14.1549C126.79 15.73 133.488 14.2822 133.488 19.0572C133.488 21.7241 130.875 23.4513 127.78 23.4513ZM111.825 28.8874H107.259V16.6697C107.259 12.7828 110.176 9.96372 114.235 9.96372C118.193 9.96372 121.212 12.9866 121.212 16.6697C121.212 20.7337 118.523 23.4264 114.489 23.4264C113.55 23.4264 112.612 23.1469 111.825 22.7146V28.8874ZM114.235 19.1337C115.682 19.1337 116.645 18.016 116.645 16.6946C116.645 15.3491 115.682 14.2564 114.235 14.2564C112.789 14.2564 111.825 15.3491 111.825 16.6954C111.825 18.016 112.789 19.1337 114.235 19.1337ZM102.684 8.99904C101.187 8.99904 99.9446 7.75416 99.9446 6.25562C99.9446 4.75709 101.187 3.51221 102.684 3.51221C104.181 3.51221 105.424 4.75709 105.424 6.25562C105.424 7.75416 104.181 8.99904 102.684 8.99904ZM100.401 10.3446H104.968V23.0455H100.401V10.3446ZM91.6394 23.4264C87.6816 23.4264 84.6626 20.3785 84.6626 16.6697C84.6626 12.9866 87.6816 9.93875 91.6394 9.93875C95.5973 9.93875 98.6162 12.9866 98.6162 16.6697C98.6162 20.3785 95.5973 23.4264 91.6394 23.4264ZM91.6394 19.1337C93.0857 19.1337 94.0496 18.016 94.0496 16.6946C94.0496 15.3491 93.0857 14.2314 91.6394 14.2314C90.1932 14.2314 89.2293 15.3491 89.2293 16.6946C89.2293 18.016 90.1932 19.1337 91.6394 19.1337ZM76.0398 29.2683C72.8944 29.2683 70.6107 27.8712 69.4439 25.3815L73.2238 23.3499C73.6297 24.2139 74.3906 25.1028 75.9633 25.1028C77.6133 25.1028 78.7036 24.0609 78.8308 22.2322C78.2221 22.7661 77.2574 23.1719 75.8119 23.1719C72.2849 23.1719 69.4431 20.4543 69.4431 16.6439C69.4431 12.9616 72.4628 9.96372 76.4207 9.96372C80.48 9.96372 83.3975 12.7836 83.3975 16.6697V21.6991C83.3975 26.2712 80.2256 29.2683 76.0398 29.2683ZM76.3442 18.88C77.714 18.88 78.7543 17.9395 78.7543 16.5425C78.7543 15.1711 77.7147 14.2564 76.3442 14.2564C74.9994 14.2564 73.9341 15.1711 73.9341 16.5432C73.9341 17.9403 74.9994 18.8792 76.3442 18.8792V18.88ZM61.6976 23.4264C57.7397 23.4264 54.72 20.3785 54.72 16.6697C54.72 12.9866 57.7397 9.93875 61.6976 9.93875C65.6546 9.93875 68.6743 12.9866 68.6743 16.6697C68.6743 20.3785 65.6554 23.4264 61.6976 23.4264ZM61.6976 19.1337C63.1438 19.1337 64.1077 18.016 64.1077 16.6946C64.1077 15.3491 63.1438 14.2314 61.6976 14.2314C60.2513 14.2314 59.2874 15.3491 59.2874 16.6946C59.2874 18.016 60.2513 19.1337 61.6976 19.1337ZM46.4047 5.9005V18.727H53.9653V23.0455H45.7702C42.8784 23.0455 41.7116 21.5212 41.7116 19.1079V5.9005H46.4047Z" fill="#656565"/>
</g>
<defs>
<clipPath id="clip0_18651_11678">
<rect width="171.707" height="31.2195" fill="white" transform="translate(0.345764 0.390259)"/>
</clipPath>
</defs>
</svg>
