<svg width="136" height="38" viewBox="0 0 136 38" fill="none" xmlns="http://www.w3.org/2000/svg">
<g filter="url(#filter1_f_19166_3657)">
<path d="M70.8655 11.905L66.5468 2.95905H72.4079L77.0351 11.905H70.8655Z" fill="#0066FF"/>
<path d="M91.8422 2.95905L78.886 28.2544L82.5878 34.7325L98.6287 2.95905H91.8422Z" fill="#0066FF"/>
<path d="M114.812 5.42697C107.827 5.9799 102.331 11.8238 102.331 18.9515C102.331 26.0791 107.827 31.923 114.812 32.4759M116.983 5.42697C123.969 5.9799 129.465 11.8238 129.465 18.9515C129.465 26.0791 123.969 31.923 116.983 32.4759" stroke="#0066FF" stroke-width="4.34152"/>
<path d="M19.041 2.95905L15.9562 8.2032L23.0512 23.3187H9.1696L3 35.041H9.1696L13.1798 28.2544H25.2106L28.2954 35.041H35.0819L19.041 2.95905Z" fill="#0066FF"/>
<path d="M54.2076 2.95905L51.1228 8.2032L58.2179 23.3187H44.3363L38.1667 35.041H44.3363L48.3465 28.2544H60.3772L63.462 35.041H70.2486L54.2076 2.95905Z" fill="#0066FF"/>
</g>
<path d="M70.8655 11.905L66.5468 2.95905H72.4079L77.0351 11.905H70.8655Z" fill="#0066FF"/>
<path d="M91.8422 2.95905L78.886 28.2544L82.5878 34.7325L98.6287 2.95905H91.8422Z" fill="#0066FF"/>
<path d="M114.812 5.42697C107.827 5.9799 102.331 11.8238 102.331 18.9515C102.331 26.0791 107.827 31.923 114.812 32.4759M116.983 5.42697C123.969 5.9799 129.465 11.8238 129.465 18.9515C129.465 26.0791 123.969 31.923 116.983 32.4759" stroke="#0066FF" stroke-width="5"/>
<path d="M19.041 2.95905L15.9562 8.2032L23.0512 23.3187H9.1696L3 35.041H9.1696L13.1798 28.2544H25.2106L28.2954 35.041H35.0819L19.041 2.95905Z" fill="#0066FF"/>
<path d="M54.2076 2.95905L51.1228 8.2032L58.2179 23.3187H44.3363L38.1667 35.041H44.3363L48.3465 28.2544H60.3772L63.462 35.041H70.2486L54.2076 2.95905Z" fill="#0066FF"/>
<defs>
<filter id="filter1_f_19166_3657" x="0.532161" y="0.491206" width="133.571" height="37.0176" filterUnits="userSpaceOnUse" color-interpolation-filters="sRGB">
<feFlood flood-opacity="0" result="BackgroundImageFix"/>
<feBlend mode="normal" in="SourceGraphic" in2="BackgroundImageFix" result="shape"/>
<feGaussianBlur stdDeviation="1.23392" result="effect1_foregroundBlur_19166_3657"/>
</filter>
</defs>
</svg>
