<svg width="22" height="17" viewBox="0 0 22 17" fill="none" xmlns="http://www.w3.org/2000/svg">
<path d="M21.45 2.5106C21.175 1.5106 20.4875 0.796317 19.525 0.510603C17.875 0.0820315 10.8625 0.0820312 10.8625 0.0820312C10.8625 0.0820312 3.98751 0.0820315 2.20001 0.510603C1.23751 0.796317 0.549996 1.5106 0.274996 2.5106C-4.20026e-06 4.36775 0 8.08203 0 8.08203C0 8.08203 4.17978e-06 11.7963 0.412504 13.6535C0.687504 14.6535 1.375 15.3677 2.3375 15.6535C3.9875 16.082 11 16.082 11 16.082C11 16.082 17.875 16.082 19.6625 15.6535C20.625 15.3677 21.3125 14.6535 21.5875 13.6535C22 11.7963 22 8.08203 22 8.08203C22 8.08203 22 4.36775 21.45 2.5106ZM8.79999 11.5106V4.65346L14.575 8.08203L8.79999 11.5106Z" fill="white"/>
</svg>
